M48
; DRILL file {KiCad (5.1.2)-1} date 5/30/2019 2:12:24 PM
; FORMAT={-:-/ absolute / metric / decimal}
; #@! TF.CreationDate,2019-05-30T14:12:24+02:00
; #@! TF.GenerationSoftware,Kicad,Pcbnew,(5.1.2)-1
FMAT,2
METRIC
T1C0.300
T2C0.500
T3C0.600
T4C0.850
T5C1.000
T6C1.097
T7C2.200
%
G90
G05
T1
X17.496Y26.299
X18.396Y26.299
X19.296Y26.299
T2
X3.47Y20.24
X6.55Y17.19
X7.36Y33.15
X7.47Y34.85
X12.43Y36.2
X15.14Y22.1
X15.28Y19.11
X16.87Y9.18
X17.1Y32.6
X19.7Y34.7
X19.812Y10.541
X20.7Y30.44
X21.14Y25.04
X23.71Y13.91
X23.876Y17.907
X24.36Y15.54
X25.18Y21.195
X26.374Y21.312
X26.38Y29.39
X27.94Y24.257
X27.94Y22.733
X28.022Y7.822
X28.321Y30.607
X28.483Y26.199
X29.31Y9.87
X29.83Y20.37
X29.845Y30.607
X29.845Y29.083
X31.16Y18.72
X32.68Y9.29
X32.71Y10.91
X32.811Y5.971
X34.46Y11.54
X34.925Y10.29
X34.925Y8.255
X36.83Y10.36
X36.83Y8.255
X39.751Y17.78
X47.65Y16.34
X48.37Y23.41
X49.657Y15.515
X54.03Y35.81
X73.914Y32.385
X73.914Y31.115
X76.46Y1.84
X78.14Y1.84
X80.645Y19.465
X80.645Y17.465
X80.645Y15.465
X80.645Y13.465
X80.645Y11.465
X80.645Y9.465
X80.645Y7.465
X82.55Y37.465
X82.55Y35.465
X82.55Y33.465
X82.55Y31.465
X82.55Y29.465
X82.55Y27.465
X82.55Y19.465
X82.55Y17.465
X82.55Y15.465
X82.55Y13.465
X82.55Y11.465
X82.55Y9.465
X82.55Y7.465
T4
X4.1Y12.8
X4.1Y7.8
T5
X66.1Y18.4
X66.1Y15.86
X66.1Y13.32
X66.1Y10.78
T6
X67.7Y31.44
X67.7Y28.9
X2.196Y36.095
X2.196Y33.555
X2.196Y31.015
X2.196Y28.475
X2.196Y25.935
X2.196Y23.395
X76.465Y37.772
X79.005Y37.772
T7
X4.24Y2.92
X64.705Y36.73
X81.291Y4.396
X66.077Y6.809
X81.291Y23.827
T3
G00X1.05Y13.8
M15
G01X1.75Y13.8
M16
G05
G00X1.75Y6.8
M15
G01X1.05Y6.8
M16
G05
T0
M30
