%TF.GenerationSoftware,KiCad,Pcbnew,(5.1.2)-1*%
%TF.CreationDate,2019-05-30T14:12:01+02:00*%
%TF.ProjectId,LEOLED_rev1,4c454f4c-4544-45f7-9265-76312e6b6963,1*%
%TF.SameCoordinates,Original*%
%TF.FileFunction,Profile,NP*%
%FSLAX46Y46*%
G04 Gerber Fmt 4.6, Leading zero omitted, Abs format (unit mm)*
G04 Created by KiCad (PCBNEW (5.1.2)-1) date 2019-05-30 14:12:01*
%MOMM*%
%LPD*%
G04 APERTURE LIST*
%ADD10C,0.150000*%
G04 APERTURE END LIST*
D10*
X72000000Y0D02*
X84100000Y0D01*
X72000000Y3200000D02*
X72000000Y0D01*
X70100000Y3200000D02*
X72000000Y3200000D01*
X70100000Y3200000D02*
X70100000Y0D01*
X70100000Y5500000D02*
X70100000Y23100000D01*
X72000000Y5500000D02*
X70100000Y5500000D01*
X72000000Y23100000D02*
X72000000Y5500000D01*
X70100000Y23100000D02*
X72000000Y23100000D01*
X84100000Y40000000D02*
X72100000Y40000000D01*
X70100000Y40000000D02*
X70100000Y37600000D01*
X72100000Y37600000D02*
X72100000Y40000000D01*
X70100000Y37600000D02*
X72100000Y37600000D01*
X70100000Y34400000D02*
X70100000Y33500000D01*
X72000000Y34400000D02*
X70100000Y34400000D01*
X72000000Y26200000D02*
X72000000Y34400000D01*
X70100000Y26200000D02*
X72000000Y26200000D01*
X70100000Y33500000D02*
X70100000Y26200000D01*
X70100000Y40000000D02*
X0Y40000000D01*
X84100000Y0D02*
X84100000Y40000000D01*
X0Y0D02*
X70100000Y0D01*
X0Y40000000D02*
X0Y0D01*
M02*
