%TF.GenerationSoftware,KiCad,Pcbnew,(5.1.2)-1*%
%TF.CreationDate,2019-05-30T14:12:01+02:00*%
%TF.ProjectId,LEOLED_rev1,4c454f4c-4544-45f7-9265-76312e6b6963,1*%
%TF.SameCoordinates,Original*%
%TF.FileFunction,Copper,L2,Bot*%
%TF.FilePolarity,Positive*%
%FSLAX46Y46*%
G04 Gerber Fmt 4.6, Leading zero omitted, Abs format (unit mm)*
G04 Created by KiCad (PCBNEW (5.1.2)-1) date 2019-05-30 14:12:01*
%MOMM*%
%LPD*%
G04 APERTURE LIST*
%ADD10C,1.000000*%
%ADD11O,1.900000X1.200000*%
%ADD12C,1.450000*%
%ADD13C,0.600000*%
%ADD14R,2.400000X0.840000*%
%ADD15R,1.998980X1.998980*%
%ADD16O,1.998980X1.998980*%
%ADD17C,3.500000*%
%ADD18R,0.970000X1.500000*%
%ADD19O,1.700000X1.700000*%
%ADD20R,1.700000X1.700000*%
%ADD21R,1.000000X0.670000*%
%ADD22C,0.250000*%
%ADD23C,0.500000*%
%ADD24C,0.254000*%
%ADD25C,1.000000*%
%ADD26C,0.300000*%
G04 APERTURE END LIST*
D10*
X65000000Y22000000D03*
X8000000Y7000000D03*
X9000000Y37000000D03*
D11*
X1400000Y6800000D03*
X1400000Y13800000D03*
D12*
X4100000Y7800000D03*
X4100000Y12800000D03*
D13*
X19295517Y26299479D03*
X17495517Y26299479D03*
X18395517Y26299479D03*
D14*
X18395517Y26299479D03*
D15*
X79005400Y37771600D03*
D16*
X76465400Y37771600D03*
D15*
X67700000Y28900000D03*
D16*
X67700000Y31440000D03*
D17*
X81291400Y23827000D03*
X66076800Y6809000D03*
X64705200Y36730200D03*
X4240000Y2920000D03*
X81291400Y4396000D03*
D18*
X71955000Y24700000D03*
X70045000Y24700000D03*
X71855000Y35900000D03*
X69945000Y35900000D03*
D16*
X2195800Y23395200D03*
X2195800Y25935200D03*
X2195800Y31015200D03*
X2195800Y33555200D03*
D15*
X2195800Y36095200D03*
D16*
X2195800Y28475200D03*
D19*
X66100000Y10780000D03*
X66100000Y13320000D03*
X66100000Y15860000D03*
D20*
X66100000Y18400000D03*
D21*
X5300000Y30375000D03*
X5300000Y28625000D03*
D10*
X7470000Y34850000D03*
X17100000Y32600000D03*
X48370000Y23410000D03*
X36830000Y10360000D03*
X34925000Y10290000D03*
X36830000Y8255000D03*
X34925000Y8255000D03*
X27940000Y24257000D03*
X27940000Y22733000D03*
X29845000Y29083000D03*
X29845000Y30607000D03*
X28321000Y30607000D03*
X21140000Y25040000D03*
X49657000Y15515000D03*
X39751000Y17780000D03*
X19812000Y10541000D03*
X23876000Y17907000D03*
X6550000Y17190000D03*
X12430000Y36200000D03*
X15140000Y22100000D03*
X73914000Y31115000D03*
X73914000Y32385000D03*
X82550000Y37465000D03*
X82550000Y35465000D03*
X82550000Y33465000D03*
X82550000Y31465000D03*
X82550000Y29465000D03*
X82550000Y27465000D03*
X82550000Y19465000D03*
X82550000Y17465000D03*
X82550000Y15465000D03*
X82550000Y13465000D03*
X82550000Y11465000D03*
X82550000Y9465000D03*
X82550000Y7465000D03*
X80645000Y13465000D03*
X80645000Y17465000D03*
X80645000Y11465000D03*
X80645000Y7465000D03*
X80645000Y9465000D03*
X80645000Y19465000D03*
X80645000Y15465000D03*
X76460000Y1840000D03*
X78140000Y1840000D03*
X7360000Y33150000D03*
X47650000Y16340000D03*
X34460000Y11540000D03*
X32680000Y9290000D03*
X23710000Y13910000D03*
X32810727Y5971278D03*
X24360000Y15540000D03*
X29310000Y9870000D03*
X16870000Y9180000D03*
X28022193Y7822193D03*
X26374247Y21312383D03*
X26380000Y29390000D03*
X32710000Y10910000D03*
X28483142Y26198728D03*
X25180000Y21195000D03*
X19700000Y34700000D03*
X20700000Y30440000D03*
X3470000Y20240000D03*
X29830000Y20370000D03*
X15280000Y19110000D03*
X54030000Y35810000D03*
X31160000Y18720000D03*
D22*
X48370000Y23410000D02*
X48860000Y23900000D01*
D23*
X5155000Y28480000D02*
X5300000Y28625000D01*
X2200000Y28480000D02*
X5155000Y28480000D01*
D24*
X13406001Y21272999D02*
X17372999Y21272999D01*
X5300000Y28625000D02*
X6054000Y28625000D01*
X6054000Y28625000D02*
X13406001Y21272999D01*
X17372999Y21272999D02*
X21140000Y25040000D01*
D22*
X49657000Y16222106D02*
X48099106Y17780000D01*
X49657000Y15515000D02*
X49657000Y16222106D01*
X48099106Y17780000D02*
X39751000Y17780000D01*
X19812000Y10541000D02*
X19812000Y11248106D01*
X19812000Y11248106D02*
X19812000Y13843000D01*
X19812000Y13843000D02*
X23876000Y17907000D01*
X19812000Y10541000D02*
X13163000Y17190000D01*
X13163000Y17190000D02*
X6550000Y17190000D01*
D24*
X12430000Y36200000D02*
X12430000Y24810000D01*
X12430000Y24810000D02*
X14640001Y22599999D01*
X14640001Y22599999D02*
X15140000Y22100000D01*
D25*
X73440000Y24700000D02*
X74041000Y25301000D01*
X71955000Y24700000D02*
X73440000Y24700000D01*
X74041000Y25301000D02*
X74041000Y30988000D01*
X74041000Y30988000D02*
X73914000Y31115000D01*
X73914000Y31115000D02*
X73914000Y31822106D01*
X73914000Y31822106D02*
X73914000Y32385000D01*
X76460000Y37800000D02*
X76460000Y1840000D01*
X78140000Y1840000D02*
X76460000Y1840000D01*
X74560000Y35900000D02*
X76460000Y37800000D01*
X71855000Y35900000D02*
X74560000Y35900000D01*
D23*
X4655000Y31020000D02*
X5300000Y30375000D01*
X2200000Y31020000D02*
X4655000Y31020000D01*
D24*
X5465000Y30375000D02*
X5300000Y30375000D01*
X7360000Y32270000D02*
X5465000Y30375000D01*
X7360000Y33150000D02*
X7360000Y32270000D01*
D22*
X46942894Y16340000D02*
X46862894Y16420000D01*
X47650000Y16340000D02*
X46942894Y16340000D01*
X46862894Y16420000D02*
X41650000Y16420000D01*
X41650000Y16420000D02*
X36770000Y11540000D01*
X36770000Y11540000D02*
X34460000Y11540000D01*
X62070000Y9290000D02*
X66100000Y13320000D01*
X32680000Y9290000D02*
X62070000Y9290000D01*
D24*
X31042678Y5971278D02*
X32103621Y5971278D01*
X23710000Y13910000D02*
X24209999Y13410001D01*
X24209999Y12803957D02*
X31042678Y5971278D01*
X24209999Y13410001D02*
X24209999Y12803957D01*
X32103621Y5971278D02*
X32810727Y5971278D01*
X24360000Y15540000D02*
X29310000Y10590000D01*
X29310000Y10590000D02*
X29310000Y10577106D01*
X29310000Y10577106D02*
X29310000Y9870000D01*
X27522194Y8322192D02*
X28022193Y7822193D01*
X26664386Y9180000D02*
X27522194Y8322192D01*
X16870000Y9180000D02*
X26664386Y9180000D01*
D22*
X26374247Y21312383D02*
X26374247Y29384247D01*
X26374247Y29384247D02*
X26380000Y29390000D01*
X32710000Y10910000D02*
X30254999Y13365001D01*
X30655001Y19576003D02*
X30655001Y24026869D01*
X30254999Y19176001D02*
X30655001Y19576003D01*
X30254999Y13365001D02*
X30254999Y19176001D01*
X28983141Y25698729D02*
X28483142Y26198728D01*
X30655001Y24026869D02*
X28983141Y25698729D01*
X24680001Y21694999D02*
X24680001Y29769999D01*
X25180000Y21195000D02*
X24680001Y21694999D01*
X24680001Y29769999D02*
X19750000Y34700000D01*
X19750000Y34700000D02*
X19700000Y34700000D01*
X17460000Y20240000D02*
X3470000Y20240000D01*
X18090000Y20240000D02*
X17460000Y20240000D01*
X19790000Y20240000D02*
X18110000Y20240000D01*
X21965001Y22415001D02*
X19790000Y20240000D01*
X21965001Y26444999D02*
X21965001Y22415001D01*
X20700000Y30440000D02*
X20700000Y27710000D01*
X20700000Y27710000D02*
X21965001Y26444999D01*
X15860000Y19690000D02*
X15280000Y19110000D01*
X29830000Y20370000D02*
X29150000Y19690000D01*
X29150000Y19690000D02*
X15860000Y19690000D01*
X48250000Y35810000D02*
X31659999Y19219999D01*
X31659999Y19219999D02*
X31160000Y18720000D01*
X54030000Y35810000D02*
X48250000Y35810000D01*
D25*
X67700000Y26900510D02*
X67691000Y26891510D01*
X67700000Y28900000D02*
X67700000Y26900510D01*
X67700000Y25560000D02*
X67700000Y26900510D01*
X68560000Y24700000D02*
X67700000Y25560000D01*
X70045000Y24700000D02*
X68560000Y24700000D01*
X69945000Y35900000D02*
X68621000Y35900000D01*
X67700000Y34979000D02*
X67700000Y31440000D01*
X68621000Y35900000D02*
X67700000Y34979000D01*
D26*
G36*
X69575001Y37625798D02*
G01*
X69572460Y37600000D01*
X69582597Y37497082D01*
X69612617Y37398119D01*
X69661367Y37306914D01*
X69726973Y37226973D01*
X69806914Y37161367D01*
X69850000Y37138337D01*
X69850000Y37102177D01*
X69460000Y37102177D01*
X69371785Y37093489D01*
X69286959Y37067757D01*
X69208784Y37025971D01*
X69140263Y36969737D01*
X69084029Y36901216D01*
X69056653Y36850000D01*
X68667657Y36850000D01*
X68621000Y36854595D01*
X68574343Y36850000D01*
X68574335Y36850000D01*
X68450720Y36837825D01*
X68434767Y36836254D01*
X68255691Y36781932D01*
X68214660Y36760000D01*
X68090655Y36693718D01*
X68090653Y36693717D01*
X68090654Y36693717D01*
X67982245Y36604748D01*
X67982242Y36604745D01*
X67945999Y36575001D01*
X67916254Y36538757D01*
X67061248Y35683750D01*
X67024999Y35654001D01*
X66906282Y35509345D01*
X66818068Y35344307D01*
X66763746Y35165231D01*
X66750000Y35025664D01*
X66750000Y35025654D01*
X66745405Y34979000D01*
X66750000Y34932345D01*
X66750001Y32535478D01*
X66670097Y32469903D01*
X66488962Y32249190D01*
X66354367Y31997380D01*
X66271483Y31724150D01*
X66243497Y31440000D01*
X66271483Y31155850D01*
X66354367Y30882620D01*
X66488962Y30630810D01*
X66670097Y30410097D01*
X66741294Y30351667D01*
X66700510Y30351667D01*
X66612295Y30342979D01*
X66527469Y30317247D01*
X66449294Y30275461D01*
X66380773Y30219227D01*
X66324539Y30150706D01*
X66282753Y30072531D01*
X66257021Y29987705D01*
X66248333Y29899490D01*
X66248333Y27900510D01*
X66257021Y27812295D01*
X66282753Y27727469D01*
X66324539Y27649294D01*
X66380773Y27580773D01*
X66449294Y27524539D01*
X66527469Y27482753D01*
X66612295Y27457021D01*
X66700510Y27448333D01*
X66750001Y27448333D01*
X66750001Y27029554D01*
X66736405Y26891510D01*
X66750001Y26753467D01*
X66750000Y25606655D01*
X66745405Y25560000D01*
X66750000Y25513346D01*
X66750000Y25513336D01*
X66763746Y25373769D01*
X66818068Y25194693D01*
X66906282Y25029655D01*
X67024999Y24884999D01*
X67061248Y24855250D01*
X67855254Y24061243D01*
X67884999Y24024999D01*
X67921242Y23995255D01*
X67921245Y23995252D01*
X67973241Y23952580D01*
X68029655Y23906282D01*
X68106477Y23865220D01*
X68194691Y23818068D01*
X68373767Y23763746D01*
X68389720Y23762175D01*
X68513335Y23750000D01*
X68513343Y23750000D01*
X68560000Y23745405D01*
X68606657Y23750000D01*
X69156653Y23750000D01*
X69184029Y23698784D01*
X69240263Y23630263D01*
X69308784Y23574029D01*
X69386959Y23532243D01*
X69471785Y23506511D01*
X69560000Y23497823D01*
X69757187Y23497823D01*
X69726973Y23473027D01*
X69661367Y23393086D01*
X69612617Y23301881D01*
X69582597Y23202918D01*
X69572460Y23100000D01*
X69575001Y23074202D01*
X69575000Y5525788D01*
X69572460Y5500000D01*
X69582597Y5397082D01*
X69612617Y5298119D01*
X69647229Y5233365D01*
X69661367Y5206914D01*
X69726973Y5126973D01*
X69806914Y5061367D01*
X69850000Y5038337D01*
X69850000Y4650189D01*
X6350189Y4730000D01*
X6320736Y4727118D01*
X6292597Y4718582D01*
X6266664Y4704720D01*
X6243934Y4686066D01*
X6225280Y4663336D01*
X6211418Y4637403D01*
X6202882Y4609264D01*
X6200000Y4580000D01*
X6200000Y525000D01*
X525000Y525000D01*
X525000Y7162511D01*
X6350000Y7162511D01*
X6350000Y6837489D01*
X6413408Y6518713D01*
X6537789Y6218432D01*
X6718361Y5948186D01*
X6948186Y5718361D01*
X7218432Y5537789D01*
X7518713Y5413408D01*
X7837489Y5350000D01*
X8162511Y5350000D01*
X8481287Y5413408D01*
X8781568Y5537789D01*
X9051814Y5718361D01*
X9281639Y5948186D01*
X9462211Y6218432D01*
X9586592Y6518713D01*
X9650000Y6837489D01*
X9650000Y7162511D01*
X9586592Y7481287D01*
X9462211Y7781568D01*
X9281639Y8051814D01*
X9051814Y8281639D01*
X8781568Y8462211D01*
X8481287Y8586592D01*
X8162511Y8650000D01*
X7837489Y8650000D01*
X7518713Y8586592D01*
X7218432Y8462211D01*
X6948186Y8281639D01*
X6718361Y8051814D01*
X6537789Y7781568D01*
X6413408Y7481287D01*
X6350000Y7162511D01*
X525000Y7162511D01*
X525000Y17283567D01*
X5600000Y17283567D01*
X5600000Y17096433D01*
X5636508Y16912895D01*
X5708121Y16740006D01*
X5812087Y16584410D01*
X5944410Y16452087D01*
X6100006Y16348121D01*
X6272895Y16276508D01*
X6456433Y16240000D01*
X6643567Y16240000D01*
X6827105Y16276508D01*
X6999994Y16348121D01*
X7155590Y16452087D01*
X7287913Y16584410D01*
X7308353Y16615000D01*
X12924828Y16615000D01*
X18869177Y10670650D01*
X18862000Y10634567D01*
X18862000Y10447433D01*
X18898508Y10263895D01*
X18970121Y10091006D01*
X19074087Y9935410D01*
X19206410Y9803087D01*
X19275384Y9757000D01*
X17627016Y9757000D01*
X17607913Y9785590D01*
X17475590Y9917913D01*
X17319994Y10021879D01*
X17147105Y10093492D01*
X16963567Y10130000D01*
X16776433Y10130000D01*
X16592895Y10093492D01*
X16420006Y10021879D01*
X16264410Y9917913D01*
X16132087Y9785590D01*
X16028121Y9629994D01*
X15956508Y9457105D01*
X15920000Y9273567D01*
X15920000Y9086433D01*
X15956508Y8902895D01*
X16028121Y8730006D01*
X16132087Y8574410D01*
X16264410Y8442087D01*
X16420006Y8338121D01*
X16592895Y8266508D01*
X16776433Y8230000D01*
X16963567Y8230000D01*
X17147105Y8266508D01*
X17319994Y8338121D01*
X17475590Y8442087D01*
X17607913Y8574410D01*
X17627016Y8603000D01*
X26425385Y8603000D01*
X27078901Y7949484D01*
X27072193Y7915760D01*
X27072193Y7728626D01*
X27108701Y7545088D01*
X27180314Y7372199D01*
X27284280Y7216603D01*
X27416603Y7084280D01*
X27572199Y6980314D01*
X27745088Y6908701D01*
X27928626Y6872193D01*
X28115760Y6872193D01*
X28299298Y6908701D01*
X28472187Y6980314D01*
X28627783Y7084280D01*
X28760106Y7216603D01*
X28848725Y7349230D01*
X30614639Y5583316D01*
X30632704Y5561304D01*
X30720563Y5489199D01*
X30820802Y5435621D01*
X30929566Y5402628D01*
X31014342Y5394278D01*
X31014348Y5394278D01*
X31042677Y5391488D01*
X31071006Y5394278D01*
X32053711Y5394278D01*
X32072814Y5365688D01*
X32205137Y5233365D01*
X32360733Y5129399D01*
X32533622Y5057786D01*
X32717160Y5021278D01*
X32904294Y5021278D01*
X33087832Y5057786D01*
X33260721Y5129399D01*
X33416317Y5233365D01*
X33548640Y5365688D01*
X33652606Y5521284D01*
X33724219Y5694173D01*
X33760727Y5877711D01*
X33760727Y6064845D01*
X33724219Y6248383D01*
X33652606Y6421272D01*
X33548640Y6576868D01*
X33416317Y6709191D01*
X33260721Y6813157D01*
X33087832Y6884770D01*
X32904294Y6921278D01*
X32717160Y6921278D01*
X32533622Y6884770D01*
X32360733Y6813157D01*
X32205137Y6709191D01*
X32072814Y6576868D01*
X32053711Y6548278D01*
X31281679Y6548278D01*
X24786999Y13042958D01*
X24786999Y13381673D01*
X24789789Y13410002D01*
X24786999Y13438331D01*
X24786999Y13438337D01*
X24778649Y13523113D01*
X24745656Y13631877D01*
X24692078Y13732116D01*
X24652758Y13780027D01*
X24660000Y13816433D01*
X24660000Y14003567D01*
X24623492Y14187105D01*
X24551879Y14359994D01*
X24447913Y14515590D01*
X24373503Y14590000D01*
X24453567Y14590000D01*
X24487291Y14596708D01*
X28590248Y10493751D01*
X28572087Y10475590D01*
X28468121Y10319994D01*
X28396508Y10147105D01*
X28360000Y9963567D01*
X28360000Y9776433D01*
X28396508Y9592895D01*
X28468121Y9420006D01*
X28572087Y9264410D01*
X28704410Y9132087D01*
X28860006Y9028121D01*
X29032895Y8956508D01*
X29216433Y8920000D01*
X29403567Y8920000D01*
X29587105Y8956508D01*
X29759994Y9028121D01*
X29915590Y9132087D01*
X30047913Y9264410D01*
X30151879Y9420006D01*
X30223492Y9592895D01*
X30260000Y9776433D01*
X30260000Y9963567D01*
X30223492Y10147105D01*
X30151879Y10319994D01*
X30047913Y10475590D01*
X29915590Y10607913D01*
X29886085Y10627628D01*
X29878650Y10703112D01*
X29845657Y10811876D01*
X29792079Y10912115D01*
X29719974Y10999974D01*
X29697969Y11018033D01*
X25303292Y15412709D01*
X25310000Y15446433D01*
X25310000Y15633567D01*
X25273492Y15817105D01*
X25201879Y15989994D01*
X25097913Y16145590D01*
X24965590Y16277913D01*
X24809994Y16381879D01*
X24637105Y16453492D01*
X24453567Y16490000D01*
X24266433Y16490000D01*
X24082895Y16453492D01*
X23910006Y16381879D01*
X23754410Y16277913D01*
X23622087Y16145590D01*
X23518121Y15989994D01*
X23446508Y15817105D01*
X23410000Y15633567D01*
X23410000Y15446433D01*
X23446508Y15262895D01*
X23518121Y15090006D01*
X23622087Y14934410D01*
X23696497Y14860000D01*
X23616433Y14860000D01*
X23432895Y14823492D01*
X23260006Y14751879D01*
X23104410Y14647913D01*
X22972087Y14515590D01*
X22868121Y14359994D01*
X22796508Y14187105D01*
X22760000Y14003567D01*
X22760000Y13816433D01*
X22796508Y13632895D01*
X22868121Y13460006D01*
X22972087Y13304410D01*
X23104410Y13172087D01*
X23260006Y13068121D01*
X23432895Y12996508D01*
X23616433Y12960000D01*
X23632999Y12960000D01*
X23632999Y12832288D01*
X23630209Y12803957D01*
X23641348Y12690846D01*
X23654896Y12646187D01*
X23674342Y12582081D01*
X23727921Y12481842D01*
X23751188Y12453492D01*
X23781962Y12415993D01*
X23781965Y12415990D01*
X23800026Y12393983D01*
X23822033Y12375922D01*
X26440955Y9757000D01*
X20348616Y9757000D01*
X20417590Y9803087D01*
X20549913Y9935410D01*
X20653879Y10091006D01*
X20725492Y10263895D01*
X20762000Y10447433D01*
X20762000Y10634567D01*
X20725492Y10818105D01*
X20653879Y10990994D01*
X20549913Y11146590D01*
X20417590Y11278913D01*
X20387000Y11299353D01*
X20387000Y13604828D01*
X23746350Y16964177D01*
X23782433Y16957000D01*
X23969567Y16957000D01*
X24153105Y16993508D01*
X24325994Y17065121D01*
X24481590Y17169087D01*
X24613913Y17301410D01*
X24717879Y17457006D01*
X24789492Y17629895D01*
X24826000Y17813433D01*
X24826000Y18000567D01*
X24789492Y18184105D01*
X24717879Y18356994D01*
X24613913Y18512590D01*
X24481590Y18644913D01*
X24325994Y18748879D01*
X24153105Y18820492D01*
X23969567Y18857000D01*
X23782433Y18857000D01*
X23598895Y18820492D01*
X23426006Y18748879D01*
X23270410Y18644913D01*
X23138087Y18512590D01*
X23034121Y18356994D01*
X22962508Y18184105D01*
X22926000Y18000567D01*
X22926000Y17813433D01*
X22933177Y17777350D01*
X19425389Y14269561D01*
X19403447Y14251554D01*
X19385441Y14229613D01*
X19331592Y14163998D01*
X19278199Y14064107D01*
X19245321Y13955719D01*
X19234218Y13843000D01*
X19237001Y13814747D01*
X19237000Y11929173D01*
X13589566Y17576606D01*
X13571554Y17598554D01*
X13483998Y17670408D01*
X13384108Y17723801D01*
X13275720Y17756680D01*
X13191246Y17765000D01*
X13191243Y17765000D01*
X13163000Y17767782D01*
X13134757Y17765000D01*
X7308353Y17765000D01*
X7287913Y17795590D01*
X7155590Y17927913D01*
X6999994Y18031879D01*
X6827105Y18103492D01*
X6643567Y18140000D01*
X6456433Y18140000D01*
X6272895Y18103492D01*
X6100006Y18031879D01*
X5944410Y17927913D01*
X5812087Y17795590D01*
X5708121Y17639994D01*
X5636508Y17467105D01*
X5600000Y17283567D01*
X525000Y17283567D01*
X525000Y23395200D01*
X739297Y23395200D01*
X767283Y23111050D01*
X850167Y22837820D01*
X984762Y22586010D01*
X1165897Y22365297D01*
X1386610Y22184162D01*
X1638420Y22049567D01*
X1911650Y21966683D01*
X2124595Y21945710D01*
X2267005Y21945710D01*
X2479950Y21966683D01*
X2753180Y22049567D01*
X3004990Y22184162D01*
X3225703Y22365297D01*
X3406838Y22586010D01*
X3541433Y22837820D01*
X3624317Y23111050D01*
X3652303Y23395200D01*
X3624317Y23679350D01*
X3541433Y23952580D01*
X3406838Y24204390D01*
X3225703Y24425103D01*
X3004990Y24606238D01*
X2753180Y24740833D01*
X2479950Y24823717D01*
X2267005Y24844690D01*
X2124595Y24844690D01*
X1911650Y24823717D01*
X1638420Y24740833D01*
X1386610Y24606238D01*
X1165897Y24425103D01*
X984762Y24204390D01*
X850167Y23952580D01*
X767283Y23679350D01*
X739297Y23395200D01*
X525000Y23395200D01*
X525000Y31015200D01*
X739297Y31015200D01*
X767283Y30731050D01*
X850167Y30457820D01*
X984762Y30206010D01*
X1165897Y29985297D01*
X1386610Y29804162D01*
X1496920Y29745200D01*
X1386610Y29686238D01*
X1165897Y29505103D01*
X984762Y29284390D01*
X850167Y29032580D01*
X767283Y28759350D01*
X739297Y28475200D01*
X767283Y28191050D01*
X850167Y27917820D01*
X984762Y27666010D01*
X1165897Y27445297D01*
X1386610Y27264162D01*
X1638420Y27129567D01*
X1911650Y27046683D01*
X2124595Y27025710D01*
X2267005Y27025710D01*
X2479950Y27046683D01*
X2753180Y27129567D01*
X3004990Y27264162D01*
X3225703Y27445297D01*
X3406838Y27666010D01*
X3467767Y27780000D01*
X5120613Y27780000D01*
X5155000Y27776613D01*
X5189387Y27780000D01*
X5189390Y27780000D01*
X5292224Y27790128D01*
X5424175Y27830155D01*
X5438521Y27837823D01*
X5800000Y27837823D01*
X5888215Y27846511D01*
X5973041Y27872243D01*
X5984585Y27878414D01*
X12977962Y20885037D01*
X12996027Y20863025D01*
X13054545Y20815000D01*
X4228353Y20815000D01*
X4207913Y20845590D01*
X4075590Y20977913D01*
X3919994Y21081879D01*
X3747105Y21153492D01*
X3563567Y21190000D01*
X3376433Y21190000D01*
X3192895Y21153492D01*
X3020006Y21081879D01*
X2864410Y20977913D01*
X2732087Y20845590D01*
X2628121Y20689994D01*
X2556508Y20517105D01*
X2520000Y20333567D01*
X2520000Y20146433D01*
X2556508Y19962895D01*
X2628121Y19790006D01*
X2732087Y19634410D01*
X2864410Y19502087D01*
X3020006Y19398121D01*
X3192895Y19326508D01*
X3376433Y19290000D01*
X3563567Y19290000D01*
X3747105Y19326508D01*
X3919994Y19398121D01*
X4075590Y19502087D01*
X4207913Y19634410D01*
X4228353Y19665000D01*
X14508284Y19665000D01*
X14438121Y19559994D01*
X14366508Y19387105D01*
X14330000Y19203567D01*
X14330000Y19016433D01*
X14366508Y18832895D01*
X14438121Y18660006D01*
X14542087Y18504410D01*
X14674410Y18372087D01*
X14830006Y18268121D01*
X15002895Y18196508D01*
X15186433Y18160000D01*
X15373567Y18160000D01*
X15557105Y18196508D01*
X15729994Y18268121D01*
X15885590Y18372087D01*
X16017913Y18504410D01*
X16121879Y18660006D01*
X16193492Y18832895D01*
X16230000Y19016433D01*
X16230000Y19115000D01*
X29121757Y19115000D01*
X29150000Y19112218D01*
X29178243Y19115000D01*
X29178246Y19115000D01*
X29262720Y19123320D01*
X29371108Y19156199D01*
X29470998Y19209592D01*
X29558554Y19281446D01*
X29576565Y19303393D01*
X29700350Y19427177D01*
X29733722Y19420539D01*
X29721198Y19397108D01*
X29688320Y19288720D01*
X29677217Y19176001D01*
X29680000Y19147748D01*
X29679999Y13393244D01*
X29677217Y13365001D01*
X29679999Y13336758D01*
X29679999Y13336756D01*
X29688319Y13252282D01*
X29707781Y13188125D01*
X29721198Y13143894D01*
X29774591Y13044003D01*
X29789503Y13025833D01*
X29846445Y12956447D01*
X29868392Y12938436D01*
X31767177Y11039650D01*
X31760000Y11003567D01*
X31760000Y10816433D01*
X31796508Y10632895D01*
X31868121Y10460006D01*
X31972087Y10304410D01*
X32104410Y10172087D01*
X32197296Y10110023D01*
X32074410Y10027913D01*
X31942087Y9895590D01*
X31838121Y9739994D01*
X31766508Y9567105D01*
X31730000Y9383567D01*
X31730000Y9196433D01*
X31766508Y9012895D01*
X31838121Y8840006D01*
X31942087Y8684410D01*
X32074410Y8552087D01*
X32230006Y8448121D01*
X32402895Y8376508D01*
X32586433Y8340000D01*
X32773567Y8340000D01*
X32957105Y8376508D01*
X33129994Y8448121D01*
X33285590Y8552087D01*
X33417913Y8684410D01*
X33438353Y8715000D01*
X62041757Y8715000D01*
X62070000Y8712218D01*
X62098243Y8715000D01*
X62098246Y8715000D01*
X62182720Y8723320D01*
X62291108Y8756199D01*
X62390998Y8809592D01*
X62478554Y8881446D01*
X62496566Y8903393D01*
X64916199Y11323026D01*
X64893145Y11279896D01*
X64818810Y11034845D01*
X64793710Y10780000D01*
X64818810Y10525155D01*
X64893145Y10280104D01*
X65013860Y10054264D01*
X65176313Y9856313D01*
X65374264Y9693860D01*
X65600104Y9573145D01*
X65845155Y9498810D01*
X66036136Y9480000D01*
X66163864Y9480000D01*
X66354845Y9498810D01*
X66599896Y9573145D01*
X66825736Y9693860D01*
X67023687Y9856313D01*
X67186140Y10054264D01*
X67306855Y10280104D01*
X67381190Y10525155D01*
X67406290Y10780000D01*
X67381190Y11034845D01*
X67306855Y11279896D01*
X67186140Y11505736D01*
X67023687Y11703687D01*
X66825736Y11866140D01*
X66599896Y11986855D01*
X66391734Y12050000D01*
X66599896Y12113145D01*
X66825736Y12233860D01*
X67023687Y12396313D01*
X67186140Y12594264D01*
X67306855Y12820104D01*
X67381190Y13065155D01*
X67406290Y13320000D01*
X67381190Y13574845D01*
X67306855Y13819896D01*
X67186140Y14045736D01*
X67023687Y14243687D01*
X66825736Y14406140D01*
X66599896Y14526855D01*
X66391734Y14590000D01*
X66599896Y14653145D01*
X66825736Y14773860D01*
X67023687Y14936313D01*
X67186140Y15134264D01*
X67306855Y15360104D01*
X67381190Y15605155D01*
X67406290Y15860000D01*
X67381190Y16114845D01*
X67306855Y16359896D01*
X67186140Y16585736D01*
X67023687Y16783687D01*
X66825736Y16946140D01*
X66599896Y17066855D01*
X66354845Y17141190D01*
X66163864Y17160000D01*
X66036136Y17160000D01*
X65845155Y17141190D01*
X65600104Y17066855D01*
X65374264Y16946140D01*
X65176313Y16783687D01*
X65013860Y16585736D01*
X64893145Y16359896D01*
X64818810Y16114845D01*
X64793710Y15860000D01*
X64818810Y15605155D01*
X64893145Y15360104D01*
X65013860Y15134264D01*
X65176313Y14936313D01*
X65374264Y14773860D01*
X65600104Y14653145D01*
X65808266Y14590000D01*
X65600104Y14526855D01*
X65374264Y14406140D01*
X65176313Y14243687D01*
X65013860Y14045736D01*
X64893145Y13819896D01*
X64818810Y13574845D01*
X64793710Y13320000D01*
X64818810Y13065155D01*
X64868424Y12901597D01*
X61831828Y9865000D01*
X33438353Y9865000D01*
X33417913Y9895590D01*
X33285590Y10027913D01*
X33192704Y10089977D01*
X33315590Y10172087D01*
X33447913Y10304410D01*
X33551879Y10460006D01*
X33623492Y10632895D01*
X33660000Y10816433D01*
X33660000Y11003567D01*
X33653270Y11037402D01*
X33722087Y10934410D01*
X33854410Y10802087D01*
X34010006Y10698121D01*
X34182895Y10626508D01*
X34366433Y10590000D01*
X34553567Y10590000D01*
X34737105Y10626508D01*
X34909994Y10698121D01*
X35065590Y10802087D01*
X35197913Y10934410D01*
X35218353Y10965000D01*
X36741757Y10965000D01*
X36770000Y10962218D01*
X36798243Y10965000D01*
X36798246Y10965000D01*
X36882720Y10973320D01*
X36991108Y11006199D01*
X37090998Y11059592D01*
X37178554Y11131446D01*
X37196566Y11153394D01*
X41888173Y15845000D01*
X46649195Y15845000D01*
X46721786Y15806199D01*
X46830174Y15773320D01*
X46890027Y15767425D01*
X46912087Y15734410D01*
X47044410Y15602087D01*
X47200006Y15498121D01*
X47372895Y15426508D01*
X47556433Y15390000D01*
X47743567Y15390000D01*
X47927105Y15426508D01*
X48099994Y15498121D01*
X48255590Y15602087D01*
X48387913Y15734410D01*
X48491879Y15890006D01*
X48563492Y16062895D01*
X48600000Y16246433D01*
X48600000Y16433567D01*
X48591963Y16473970D01*
X48932215Y16133718D01*
X48919087Y16120590D01*
X48815121Y15964994D01*
X48743508Y15792105D01*
X48707000Y15608567D01*
X48707000Y15421433D01*
X48743508Y15237895D01*
X48815121Y15065006D01*
X48919087Y14909410D01*
X49051410Y14777087D01*
X49207006Y14673121D01*
X49379895Y14601508D01*
X49563433Y14565000D01*
X49750567Y14565000D01*
X49934105Y14601508D01*
X50106994Y14673121D01*
X50262590Y14777087D01*
X50394913Y14909410D01*
X50498879Y15065006D01*
X50570492Y15237895D01*
X50607000Y15421433D01*
X50607000Y15608567D01*
X50570492Y15792105D01*
X50498879Y15964994D01*
X50394913Y16120590D01*
X50262590Y16252913D01*
X50229575Y16274973D01*
X50223680Y16334826D01*
X50190801Y16443214D01*
X50142959Y16532719D01*
X50137408Y16543105D01*
X50083559Y16608720D01*
X50065554Y16630660D01*
X50043612Y16648667D01*
X48525671Y18166607D01*
X48507660Y18188554D01*
X48420104Y18260408D01*
X48320214Y18313801D01*
X48211826Y18346680D01*
X48127352Y18355000D01*
X48127349Y18355000D01*
X48099106Y18357782D01*
X48070863Y18355000D01*
X40509353Y18355000D01*
X40488913Y18385590D01*
X40356590Y18517913D01*
X40200994Y18621879D01*
X40028105Y18693492D01*
X39844567Y18730000D01*
X39657433Y18730000D01*
X39473895Y18693492D01*
X39301006Y18621879D01*
X39145410Y18517913D01*
X39013087Y18385590D01*
X38909121Y18229994D01*
X38837508Y18057105D01*
X38801000Y17873567D01*
X38801000Y17686433D01*
X38837508Y17502895D01*
X38909121Y17330006D01*
X39013087Y17174410D01*
X39145410Y17042087D01*
X39301006Y16938121D01*
X39473895Y16866508D01*
X39657433Y16830000D01*
X39844567Y16830000D01*
X40028105Y16866508D01*
X40200994Y16938121D01*
X40356590Y17042087D01*
X40488913Y17174410D01*
X40509353Y17205000D01*
X47255825Y17205000D01*
X47200006Y17181879D01*
X47044410Y17077913D01*
X46955189Y16988692D01*
X46891140Y16995000D01*
X46891137Y16995000D01*
X46862894Y16997782D01*
X46834651Y16995000D01*
X41678242Y16995000D01*
X41649999Y16997782D01*
X41621756Y16995000D01*
X41621754Y16995000D01*
X41537280Y16986680D01*
X41439438Y16957000D01*
X41428892Y16953801D01*
X41329001Y16900408D01*
X41290733Y16869002D01*
X41241446Y16828554D01*
X41223439Y16806612D01*
X36531828Y12115000D01*
X35218353Y12115000D01*
X35197913Y12145590D01*
X35065590Y12277913D01*
X34909994Y12381879D01*
X34737105Y12453492D01*
X34553567Y12490000D01*
X34366433Y12490000D01*
X34182895Y12453492D01*
X34010006Y12381879D01*
X33854410Y12277913D01*
X33722087Y12145590D01*
X33618121Y11989994D01*
X33546508Y11817105D01*
X33510000Y11633567D01*
X33510000Y11446433D01*
X33516730Y11412598D01*
X33447913Y11515590D01*
X33315590Y11647913D01*
X33159994Y11751879D01*
X32987105Y11823492D01*
X32803567Y11860000D01*
X32616433Y11860000D01*
X32580350Y11852823D01*
X30829999Y13603173D01*
X30829999Y17828418D01*
X30882895Y17806508D01*
X31066433Y17770000D01*
X31253567Y17770000D01*
X31437105Y17806508D01*
X31609994Y17878121D01*
X31765590Y17982087D01*
X31897913Y18114410D01*
X32001879Y18270006D01*
X32073492Y18442895D01*
X32110000Y18626433D01*
X32110000Y18813567D01*
X32102823Y18849651D01*
X35415683Y22162511D01*
X63350000Y22162511D01*
X63350000Y21837489D01*
X63413408Y21518713D01*
X63537789Y21218432D01*
X63718361Y20948186D01*
X63948186Y20718361D01*
X64218432Y20537789D01*
X64518713Y20413408D01*
X64837489Y20350000D01*
X65162511Y20350000D01*
X65481287Y20413408D01*
X65781568Y20537789D01*
X66051814Y20718361D01*
X66281639Y20948186D01*
X66462211Y21218432D01*
X66586592Y21518713D01*
X66650000Y21837489D01*
X66650000Y22162511D01*
X66586592Y22481287D01*
X66462211Y22781568D01*
X66281639Y23051814D01*
X66051814Y23281639D01*
X65781568Y23462211D01*
X65481287Y23586592D01*
X65162511Y23650000D01*
X64837489Y23650000D01*
X64518713Y23586592D01*
X64218432Y23462211D01*
X63948186Y23281639D01*
X63718361Y23051814D01*
X63537789Y22781568D01*
X63413408Y22481287D01*
X63350000Y22162511D01*
X35415683Y22162511D01*
X48488173Y35235000D01*
X53271647Y35235000D01*
X53292087Y35204410D01*
X53424410Y35072087D01*
X53580006Y34968121D01*
X53752895Y34896508D01*
X53936433Y34860000D01*
X54123567Y34860000D01*
X54307105Y34896508D01*
X54479994Y34968121D01*
X54635590Y35072087D01*
X54767913Y35204410D01*
X54871879Y35360006D01*
X54943492Y35532895D01*
X54980000Y35716433D01*
X54980000Y35903567D01*
X54943492Y36087105D01*
X54871879Y36259994D01*
X54767913Y36415590D01*
X54635590Y36547913D01*
X54479994Y36651879D01*
X54307105Y36723492D01*
X54123567Y36760000D01*
X53936433Y36760000D01*
X53752895Y36723492D01*
X53580006Y36651879D01*
X53424410Y36547913D01*
X53292087Y36415590D01*
X53271647Y36385000D01*
X48278242Y36385000D01*
X48249999Y36387782D01*
X48221756Y36385000D01*
X48221754Y36385000D01*
X48137280Y36376680D01*
X48028892Y36343801D01*
X47971478Y36313112D01*
X47929001Y36290408D01*
X47898417Y36265308D01*
X47841446Y36218554D01*
X47823439Y36196612D01*
X31289651Y19662823D01*
X31253567Y19670000D01*
X31230001Y19670000D01*
X31230001Y23998627D01*
X31232783Y24026870D01*
X31226565Y24090000D01*
X31221681Y24139589D01*
X31188802Y24247977D01*
X31174709Y24274343D01*
X31135409Y24347868D01*
X31081560Y24413483D01*
X31063555Y24435423D01*
X31041613Y24453430D01*
X29425965Y26069077D01*
X29433142Y26105161D01*
X29433142Y26292295D01*
X29396634Y26475833D01*
X29325021Y26648722D01*
X29221055Y26804318D01*
X29088732Y26936641D01*
X28933136Y27040607D01*
X28760247Y27112220D01*
X28576709Y27148728D01*
X28389575Y27148728D01*
X28206037Y27112220D01*
X28033148Y27040607D01*
X27877552Y26936641D01*
X27745229Y26804318D01*
X27641263Y26648722D01*
X27569650Y26475833D01*
X27533142Y26292295D01*
X27533142Y26105161D01*
X27569650Y25921623D01*
X27641263Y25748734D01*
X27745229Y25593138D01*
X27877552Y25460815D01*
X28033148Y25356849D01*
X28206037Y25285236D01*
X28389575Y25248728D01*
X28576709Y25248728D01*
X28612793Y25255905D01*
X30080002Y23788695D01*
X30080001Y21288883D01*
X29923567Y21320000D01*
X29736433Y21320000D01*
X29552895Y21283492D01*
X29380006Y21211879D01*
X29224410Y21107913D01*
X29092087Y20975590D01*
X28988121Y20819994D01*
X28916508Y20647105D01*
X28880000Y20463567D01*
X28880000Y20276433D01*
X28882274Y20265000D01*
X25374114Y20265000D01*
X25457105Y20281508D01*
X25629994Y20353121D01*
X25785590Y20457087D01*
X25849174Y20520671D01*
X25924253Y20470504D01*
X26097142Y20398891D01*
X26280680Y20362383D01*
X26467814Y20362383D01*
X26651352Y20398891D01*
X26824241Y20470504D01*
X26979837Y20574470D01*
X27112160Y20706793D01*
X27216126Y20862389D01*
X27287739Y21035278D01*
X27324247Y21218816D01*
X27324247Y21405950D01*
X27287739Y21589488D01*
X27216126Y21762377D01*
X27112160Y21917973D01*
X26979837Y22050296D01*
X26949247Y22070736D01*
X26949247Y28627803D01*
X26985590Y28652087D01*
X27117913Y28784410D01*
X27221879Y28940006D01*
X27293492Y29112895D01*
X27330000Y29296433D01*
X27330000Y29483567D01*
X27293492Y29667105D01*
X27221879Y29839994D01*
X27117913Y29995590D01*
X26985590Y30127913D01*
X26829994Y30231879D01*
X26657105Y30303492D01*
X26473567Y30340000D01*
X26286433Y30340000D01*
X26102895Y30303492D01*
X25930006Y30231879D01*
X25774410Y30127913D01*
X25642087Y29995590D01*
X25538121Y29839994D01*
X25466508Y29667105D01*
X25430000Y29483567D01*
X25430000Y29296433D01*
X25466508Y29112895D01*
X25538121Y28940006D01*
X25642087Y28784410D01*
X25774410Y28652087D01*
X25799248Y28635491D01*
X25799247Y22070736D01*
X25768657Y22050296D01*
X25705073Y21986712D01*
X25629994Y22036879D01*
X25457105Y22108492D01*
X25273567Y22145000D01*
X25255001Y22145000D01*
X25255001Y29741757D01*
X25257783Y29770000D01*
X25254203Y29806349D01*
X25246681Y29882719D01*
X25213802Y29991107D01*
X25180780Y30052886D01*
X25160409Y30090998D01*
X25111408Y30150706D01*
X25088555Y30178553D01*
X25066613Y30196560D01*
X20650000Y34613172D01*
X20650000Y34793567D01*
X20613492Y34977105D01*
X20541879Y35149994D01*
X20437913Y35305590D01*
X20305590Y35437913D01*
X20149994Y35541879D01*
X19977105Y35613492D01*
X19793567Y35650000D01*
X19606433Y35650000D01*
X19422895Y35613492D01*
X19250006Y35541879D01*
X19094410Y35437913D01*
X18962087Y35305590D01*
X18858121Y35149994D01*
X18786508Y34977105D01*
X18750000Y34793567D01*
X18750000Y34606433D01*
X18786508Y34422895D01*
X18858121Y34250006D01*
X18962087Y34094410D01*
X19094410Y33962087D01*
X19250006Y33858121D01*
X19422895Y33786508D01*
X19606433Y33750000D01*
X19793567Y33750000D01*
X19871355Y33765473D01*
X24105002Y29531825D01*
X24105001Y21723242D01*
X24102219Y21694999D01*
X24105001Y21666756D01*
X24105001Y21666754D01*
X24113321Y21582280D01*
X24132150Y21520210D01*
X24146200Y21473892D01*
X24199593Y21374001D01*
X24209371Y21362087D01*
X24237746Y21327511D01*
X24230000Y21288567D01*
X24230000Y21101433D01*
X24266508Y20917895D01*
X24338121Y20745006D01*
X24442087Y20589410D01*
X24574410Y20457087D01*
X24730006Y20353121D01*
X24902895Y20281508D01*
X24985886Y20265000D01*
X20628172Y20265000D01*
X22351613Y21988440D01*
X22373555Y22006447D01*
X22421068Y22064343D01*
X22445409Y22094002D01*
X22498802Y22193893D01*
X22504632Y22213112D01*
X22531681Y22302281D01*
X22540001Y22386755D01*
X22540001Y22386758D01*
X22542783Y22415001D01*
X22540001Y22443244D01*
X22540001Y26416756D01*
X22542783Y26444999D01*
X22539746Y26475833D01*
X22531681Y26557719D01*
X22498802Y26666107D01*
X22445409Y26765997D01*
X22373555Y26853553D01*
X22351614Y26871559D01*
X21275000Y27948172D01*
X21275000Y29681647D01*
X21305590Y29702087D01*
X21437913Y29834410D01*
X21541879Y29990006D01*
X21613492Y30162895D01*
X21650000Y30346433D01*
X21650000Y30533567D01*
X21613492Y30717105D01*
X21541879Y30889994D01*
X21437913Y31045590D01*
X21305590Y31177913D01*
X21149994Y31281879D01*
X20977105Y31353492D01*
X20793567Y31390000D01*
X20606433Y31390000D01*
X20422895Y31353492D01*
X20250006Y31281879D01*
X20094410Y31177913D01*
X19962087Y31045590D01*
X19858121Y30889994D01*
X19786508Y30717105D01*
X19750000Y30533567D01*
X19750000Y30346433D01*
X19786508Y30162895D01*
X19858121Y29990006D01*
X19962087Y29834410D01*
X20094410Y29702087D01*
X20125000Y29681647D01*
X20125001Y27738253D01*
X20122218Y27710000D01*
X20133321Y27597281D01*
X20166199Y27488893D01*
X20219592Y27389002D01*
X20265441Y27333135D01*
X20291447Y27301446D01*
X20313389Y27283439D01*
X21390001Y26206826D01*
X21390001Y25958883D01*
X21233567Y25990000D01*
X21046433Y25990000D01*
X20862895Y25953492D01*
X20690006Y25881879D01*
X20534410Y25777913D01*
X20402087Y25645590D01*
X20298121Y25489994D01*
X20226508Y25317105D01*
X20190000Y25133567D01*
X20190000Y24946433D01*
X20196708Y24912709D01*
X17133998Y21849999D01*
X16058883Y21849999D01*
X16090000Y22006433D01*
X16090000Y22193567D01*
X16053492Y22377105D01*
X15981879Y22549994D01*
X15877913Y22705590D01*
X15745590Y22837913D01*
X15589994Y22941879D01*
X15417105Y23013492D01*
X15233567Y23050000D01*
X15046433Y23050000D01*
X15012709Y23043292D01*
X13007000Y25049001D01*
X13007000Y35442984D01*
X13035590Y35462087D01*
X13167913Y35594410D01*
X13271879Y35750006D01*
X13343492Y35922895D01*
X13380000Y36106433D01*
X13380000Y36293567D01*
X13343492Y36477105D01*
X13271879Y36649994D01*
X13167913Y36805590D01*
X13035590Y36937913D01*
X12879994Y37041879D01*
X12707105Y37113492D01*
X12523567Y37150000D01*
X12336433Y37150000D01*
X12152895Y37113492D01*
X11980006Y37041879D01*
X11824410Y36937913D01*
X11692087Y36805590D01*
X11588121Y36649994D01*
X11516508Y36477105D01*
X11480000Y36293567D01*
X11480000Y36106433D01*
X11516508Y35922895D01*
X11588121Y35750006D01*
X11692087Y35594410D01*
X11824410Y35462087D01*
X11853000Y35442984D01*
X11853001Y24838341D01*
X11850210Y24810000D01*
X11861349Y24696889D01*
X11892698Y24593549D01*
X11894344Y24588124D01*
X11947922Y24487885D01*
X11978840Y24450212D01*
X12001963Y24422036D01*
X12001966Y24422033D01*
X12020027Y24400026D01*
X12042034Y24381965D01*
X14196708Y22227291D01*
X14190000Y22193567D01*
X14190000Y22006433D01*
X14221117Y21849999D01*
X13645002Y21849999D01*
X6482039Y29012962D01*
X6463974Y29034974D01*
X6376115Y29107079D01*
X6275876Y29160657D01*
X6211770Y29180103D01*
X6188892Y29187044D01*
X6175971Y29211216D01*
X6119737Y29279737D01*
X6051216Y29335971D01*
X5973041Y29377757D01*
X5888215Y29403489D01*
X5800000Y29412177D01*
X4800000Y29412177D01*
X4711785Y29403489D01*
X4626959Y29377757D01*
X4548784Y29335971D01*
X4480263Y29279737D01*
X4424029Y29211216D01*
X4407343Y29180000D01*
X3462636Y29180000D01*
X3406838Y29284390D01*
X3225703Y29505103D01*
X3004990Y29686238D01*
X2894680Y29745200D01*
X3004990Y29804162D01*
X3225703Y29985297D01*
X3406838Y30206010D01*
X3467767Y30320000D01*
X4347823Y30320000D01*
X4347823Y30040000D01*
X4356511Y29951785D01*
X4382243Y29866959D01*
X4424029Y29788784D01*
X4480263Y29720263D01*
X4548784Y29664029D01*
X4626959Y29622243D01*
X4711785Y29596511D01*
X4800000Y29587823D01*
X5800000Y29587823D01*
X5888215Y29596511D01*
X5973041Y29622243D01*
X6051216Y29664029D01*
X6119737Y29720263D01*
X6175971Y29788784D01*
X6217757Y29866959D01*
X6243489Y29951785D01*
X6252177Y30040000D01*
X6252177Y30346176D01*
X7747962Y31841961D01*
X7769974Y31860026D01*
X7842079Y31947885D01*
X7895657Y32048124D01*
X7909204Y32092782D01*
X7928651Y32156888D01*
X7939791Y32270000D01*
X7937000Y32298339D01*
X7937000Y32392984D01*
X7965590Y32412087D01*
X8097913Y32544410D01*
X8201879Y32700006D01*
X8273492Y32872895D01*
X8310000Y33056433D01*
X8310000Y33243567D01*
X8273492Y33427105D01*
X8201879Y33599994D01*
X8097913Y33755590D01*
X7965590Y33887913D01*
X7809994Y33991879D01*
X7637105Y34063492D01*
X7453567Y34100000D01*
X7266433Y34100000D01*
X7082895Y34063492D01*
X6910006Y33991879D01*
X6754410Y33887913D01*
X6622087Y33755590D01*
X6518121Y33599994D01*
X6446508Y33427105D01*
X6410000Y33243567D01*
X6410000Y33056433D01*
X6446508Y32872895D01*
X6518121Y32700006D01*
X6622087Y32544410D01*
X6720248Y32446249D01*
X5469474Y31195475D01*
X5174296Y31490653D01*
X5152370Y31517370D01*
X5045781Y31604845D01*
X4924175Y31669845D01*
X4792224Y31709872D01*
X4689390Y31720000D01*
X4689387Y31720000D01*
X4655000Y31723387D01*
X4620613Y31720000D01*
X3462636Y31720000D01*
X3406838Y31824390D01*
X3225703Y32045103D01*
X3004990Y32226238D01*
X2753180Y32360833D01*
X2479950Y32443717D01*
X2267005Y32464690D01*
X2124595Y32464690D01*
X1911650Y32443717D01*
X1638420Y32360833D01*
X1386610Y32226238D01*
X1165897Y32045103D01*
X984762Y31824390D01*
X850167Y31572580D01*
X767283Y31299350D01*
X739297Y31015200D01*
X525000Y31015200D01*
X525000Y37094690D01*
X744133Y37094690D01*
X744133Y35095710D01*
X752821Y35007495D01*
X778553Y34922669D01*
X820339Y34844494D01*
X876573Y34775973D01*
X945094Y34719739D01*
X1023269Y34677953D01*
X1108095Y34652221D01*
X1196310Y34643533D01*
X3195290Y34643533D01*
X3283505Y34652221D01*
X3368331Y34677953D01*
X3446506Y34719739D01*
X3515027Y34775973D01*
X3571261Y34844494D01*
X3613047Y34922669D01*
X3638779Y35007495D01*
X3647467Y35095710D01*
X3647467Y37094690D01*
X3640788Y37162511D01*
X7350000Y37162511D01*
X7350000Y36837489D01*
X7413408Y36518713D01*
X7537789Y36218432D01*
X7718361Y35948186D01*
X7948186Y35718361D01*
X8218432Y35537789D01*
X8518713Y35413408D01*
X8837489Y35350000D01*
X9162511Y35350000D01*
X9481287Y35413408D01*
X9781568Y35537789D01*
X10051814Y35718361D01*
X10281639Y35948186D01*
X10462211Y36218432D01*
X10586592Y36518713D01*
X10650000Y36837489D01*
X10650000Y37162511D01*
X10586592Y37481287D01*
X10462211Y37781568D01*
X10281639Y38051814D01*
X10051814Y38281639D01*
X9781568Y38462211D01*
X9481287Y38586592D01*
X9162511Y38650000D01*
X8837489Y38650000D01*
X8518713Y38586592D01*
X8218432Y38462211D01*
X7948186Y38281639D01*
X7718361Y38051814D01*
X7537789Y37781568D01*
X7413408Y37481287D01*
X7350000Y37162511D01*
X3640788Y37162511D01*
X3638779Y37182905D01*
X3613047Y37267731D01*
X3571261Y37345906D01*
X3515027Y37414427D01*
X3446506Y37470661D01*
X3368331Y37512447D01*
X3283505Y37538179D01*
X3195290Y37546867D01*
X1196310Y37546867D01*
X1108095Y37538179D01*
X1023269Y37512447D01*
X945094Y37470661D01*
X876573Y37414427D01*
X820339Y37345906D01*
X778553Y37267731D01*
X752821Y37182905D01*
X744133Y37094690D01*
X525000Y37094690D01*
X525000Y39475000D01*
X69575000Y39475000D01*
X69575001Y37625798D01*
X69575001Y37625798D01*
G37*
X69575001Y37625798D02*
X69572460Y37600000D01*
X69582597Y37497082D01*
X69612617Y37398119D01*
X69661367Y37306914D01*
X69726973Y37226973D01*
X69806914Y37161367D01*
X69850000Y37138337D01*
X69850000Y37102177D01*
X69460000Y37102177D01*
X69371785Y37093489D01*
X69286959Y37067757D01*
X69208784Y37025971D01*
X69140263Y36969737D01*
X69084029Y36901216D01*
X69056653Y36850000D01*
X68667657Y36850000D01*
X68621000Y36854595D01*
X68574343Y36850000D01*
X68574335Y36850000D01*
X68450720Y36837825D01*
X68434767Y36836254D01*
X68255691Y36781932D01*
X68214660Y36760000D01*
X68090655Y36693718D01*
X68090653Y36693717D01*
X68090654Y36693717D01*
X67982245Y36604748D01*
X67982242Y36604745D01*
X67945999Y36575001D01*
X67916254Y36538757D01*
X67061248Y35683750D01*
X67024999Y35654001D01*
X66906282Y35509345D01*
X66818068Y35344307D01*
X66763746Y35165231D01*
X66750000Y35025664D01*
X66750000Y35025654D01*
X66745405Y34979000D01*
X66750000Y34932345D01*
X66750001Y32535478D01*
X66670097Y32469903D01*
X66488962Y32249190D01*
X66354367Y31997380D01*
X66271483Y31724150D01*
X66243497Y31440000D01*
X66271483Y31155850D01*
X66354367Y30882620D01*
X66488962Y30630810D01*
X66670097Y30410097D01*
X66741294Y30351667D01*
X66700510Y30351667D01*
X66612295Y30342979D01*
X66527469Y30317247D01*
X66449294Y30275461D01*
X66380773Y30219227D01*
X66324539Y30150706D01*
X66282753Y30072531D01*
X66257021Y29987705D01*
X66248333Y29899490D01*
X66248333Y27900510D01*
X66257021Y27812295D01*
X66282753Y27727469D01*
X66324539Y27649294D01*
X66380773Y27580773D01*
X66449294Y27524539D01*
X66527469Y27482753D01*
X66612295Y27457021D01*
X66700510Y27448333D01*
X66750001Y27448333D01*
X66750001Y27029554D01*
X66736405Y26891510D01*
X66750001Y26753467D01*
X66750000Y25606655D01*
X66745405Y25560000D01*
X66750000Y25513346D01*
X66750000Y25513336D01*
X66763746Y25373769D01*
X66818068Y25194693D01*
X66906282Y25029655D01*
X67024999Y24884999D01*
X67061248Y24855250D01*
X67855254Y24061243D01*
X67884999Y24024999D01*
X67921242Y23995255D01*
X67921245Y23995252D01*
X67973241Y23952580D01*
X68029655Y23906282D01*
X68106477Y23865220D01*
X68194691Y23818068D01*
X68373767Y23763746D01*
X68389720Y23762175D01*
X68513335Y23750000D01*
X68513343Y23750000D01*
X68560000Y23745405D01*
X68606657Y23750000D01*
X69156653Y23750000D01*
X69184029Y23698784D01*
X69240263Y23630263D01*
X69308784Y23574029D01*
X69386959Y23532243D01*
X69471785Y23506511D01*
X69560000Y23497823D01*
X69757187Y23497823D01*
X69726973Y23473027D01*
X69661367Y23393086D01*
X69612617Y23301881D01*
X69582597Y23202918D01*
X69572460Y23100000D01*
X69575001Y23074202D01*
X69575000Y5525788D01*
X69572460Y5500000D01*
X69582597Y5397082D01*
X69612617Y5298119D01*
X69647229Y5233365D01*
X69661367Y5206914D01*
X69726973Y5126973D01*
X69806914Y5061367D01*
X69850000Y5038337D01*
X69850000Y4650189D01*
X6350189Y4730000D01*
X6320736Y4727118D01*
X6292597Y4718582D01*
X6266664Y4704720D01*
X6243934Y4686066D01*
X6225280Y4663336D01*
X6211418Y4637403D01*
X6202882Y4609264D01*
X6200000Y4580000D01*
X6200000Y525000D01*
X525000Y525000D01*
X525000Y7162511D01*
X6350000Y7162511D01*
X6350000Y6837489D01*
X6413408Y6518713D01*
X6537789Y6218432D01*
X6718361Y5948186D01*
X6948186Y5718361D01*
X7218432Y5537789D01*
X7518713Y5413408D01*
X7837489Y5350000D01*
X8162511Y5350000D01*
X8481287Y5413408D01*
X8781568Y5537789D01*
X9051814Y5718361D01*
X9281639Y5948186D01*
X9462211Y6218432D01*
X9586592Y6518713D01*
X9650000Y6837489D01*
X9650000Y7162511D01*
X9586592Y7481287D01*
X9462211Y7781568D01*
X9281639Y8051814D01*
X9051814Y8281639D01*
X8781568Y8462211D01*
X8481287Y8586592D01*
X8162511Y8650000D01*
X7837489Y8650000D01*
X7518713Y8586592D01*
X7218432Y8462211D01*
X6948186Y8281639D01*
X6718361Y8051814D01*
X6537789Y7781568D01*
X6413408Y7481287D01*
X6350000Y7162511D01*
X525000Y7162511D01*
X525000Y17283567D01*
X5600000Y17283567D01*
X5600000Y17096433D01*
X5636508Y16912895D01*
X5708121Y16740006D01*
X5812087Y16584410D01*
X5944410Y16452087D01*
X6100006Y16348121D01*
X6272895Y16276508D01*
X6456433Y16240000D01*
X6643567Y16240000D01*
X6827105Y16276508D01*
X6999994Y16348121D01*
X7155590Y16452087D01*
X7287913Y16584410D01*
X7308353Y16615000D01*
X12924828Y16615000D01*
X18869177Y10670650D01*
X18862000Y10634567D01*
X18862000Y10447433D01*
X18898508Y10263895D01*
X18970121Y10091006D01*
X19074087Y9935410D01*
X19206410Y9803087D01*
X19275384Y9757000D01*
X17627016Y9757000D01*
X17607913Y9785590D01*
X17475590Y9917913D01*
X17319994Y10021879D01*
X17147105Y10093492D01*
X16963567Y10130000D01*
X16776433Y10130000D01*
X16592895Y10093492D01*
X16420006Y10021879D01*
X16264410Y9917913D01*
X16132087Y9785590D01*
X16028121Y9629994D01*
X15956508Y9457105D01*
X15920000Y9273567D01*
X15920000Y9086433D01*
X15956508Y8902895D01*
X16028121Y8730006D01*
X16132087Y8574410D01*
X16264410Y8442087D01*
X16420006Y8338121D01*
X16592895Y8266508D01*
X16776433Y8230000D01*
X16963567Y8230000D01*
X17147105Y8266508D01*
X17319994Y8338121D01*
X17475590Y8442087D01*
X17607913Y8574410D01*
X17627016Y8603000D01*
X26425385Y8603000D01*
X27078901Y7949484D01*
X27072193Y7915760D01*
X27072193Y7728626D01*
X27108701Y7545088D01*
X27180314Y7372199D01*
X27284280Y7216603D01*
X27416603Y7084280D01*
X27572199Y6980314D01*
X27745088Y6908701D01*
X27928626Y6872193D01*
X28115760Y6872193D01*
X28299298Y6908701D01*
X28472187Y6980314D01*
X28627783Y7084280D01*
X28760106Y7216603D01*
X28848725Y7349230D01*
X30614639Y5583316D01*
X30632704Y5561304D01*
X30720563Y5489199D01*
X30820802Y5435621D01*
X30929566Y5402628D01*
X31014342Y5394278D01*
X31014348Y5394278D01*
X31042677Y5391488D01*
X31071006Y5394278D01*
X32053711Y5394278D01*
X32072814Y5365688D01*
X32205137Y5233365D01*
X32360733Y5129399D01*
X32533622Y5057786D01*
X32717160Y5021278D01*
X32904294Y5021278D01*
X33087832Y5057786D01*
X33260721Y5129399D01*
X33416317Y5233365D01*
X33548640Y5365688D01*
X33652606Y5521284D01*
X33724219Y5694173D01*
X33760727Y5877711D01*
X33760727Y6064845D01*
X33724219Y6248383D01*
X33652606Y6421272D01*
X33548640Y6576868D01*
X33416317Y6709191D01*
X33260721Y6813157D01*
X33087832Y6884770D01*
X32904294Y6921278D01*
X32717160Y6921278D01*
X32533622Y6884770D01*
X32360733Y6813157D01*
X32205137Y6709191D01*
X32072814Y6576868D01*
X32053711Y6548278D01*
X31281679Y6548278D01*
X24786999Y13042958D01*
X24786999Y13381673D01*
X24789789Y13410002D01*
X24786999Y13438331D01*
X24786999Y13438337D01*
X24778649Y13523113D01*
X24745656Y13631877D01*
X24692078Y13732116D01*
X24652758Y13780027D01*
X24660000Y13816433D01*
X24660000Y14003567D01*
X24623492Y14187105D01*
X24551879Y14359994D01*
X24447913Y14515590D01*
X24373503Y14590000D01*
X24453567Y14590000D01*
X24487291Y14596708D01*
X28590248Y10493751D01*
X28572087Y10475590D01*
X28468121Y10319994D01*
X28396508Y10147105D01*
X28360000Y9963567D01*
X28360000Y9776433D01*
X28396508Y9592895D01*
X28468121Y9420006D01*
X28572087Y9264410D01*
X28704410Y9132087D01*
X28860006Y9028121D01*
X29032895Y8956508D01*
X29216433Y8920000D01*
X29403567Y8920000D01*
X29587105Y8956508D01*
X29759994Y9028121D01*
X29915590Y9132087D01*
X30047913Y9264410D01*
X30151879Y9420006D01*
X30223492Y9592895D01*
X30260000Y9776433D01*
X30260000Y9963567D01*
X30223492Y10147105D01*
X30151879Y10319994D01*
X30047913Y10475590D01*
X29915590Y10607913D01*
X29886085Y10627628D01*
X29878650Y10703112D01*
X29845657Y10811876D01*
X29792079Y10912115D01*
X29719974Y10999974D01*
X29697969Y11018033D01*
X25303292Y15412709D01*
X25310000Y15446433D01*
X25310000Y15633567D01*
X25273492Y15817105D01*
X25201879Y15989994D01*
X25097913Y16145590D01*
X24965590Y16277913D01*
X24809994Y16381879D01*
X24637105Y16453492D01*
X24453567Y16490000D01*
X24266433Y16490000D01*
X24082895Y16453492D01*
X23910006Y16381879D01*
X23754410Y16277913D01*
X23622087Y16145590D01*
X23518121Y15989994D01*
X23446508Y15817105D01*
X23410000Y15633567D01*
X23410000Y15446433D01*
X23446508Y15262895D01*
X23518121Y15090006D01*
X23622087Y14934410D01*
X23696497Y14860000D01*
X23616433Y14860000D01*
X23432895Y14823492D01*
X23260006Y14751879D01*
X23104410Y14647913D01*
X22972087Y14515590D01*
X22868121Y14359994D01*
X22796508Y14187105D01*
X22760000Y14003567D01*
X22760000Y13816433D01*
X22796508Y13632895D01*
X22868121Y13460006D01*
X22972087Y13304410D01*
X23104410Y13172087D01*
X23260006Y13068121D01*
X23432895Y12996508D01*
X23616433Y12960000D01*
X23632999Y12960000D01*
X23632999Y12832288D01*
X23630209Y12803957D01*
X23641348Y12690846D01*
X23654896Y12646187D01*
X23674342Y12582081D01*
X23727921Y12481842D01*
X23751188Y12453492D01*
X23781962Y12415993D01*
X23781965Y12415990D01*
X23800026Y12393983D01*
X23822033Y12375922D01*
X26440955Y9757000D01*
X20348616Y9757000D01*
X20417590Y9803087D01*
X20549913Y9935410D01*
X20653879Y10091006D01*
X20725492Y10263895D01*
X20762000Y10447433D01*
X20762000Y10634567D01*
X20725492Y10818105D01*
X20653879Y10990994D01*
X20549913Y11146590D01*
X20417590Y11278913D01*
X20387000Y11299353D01*
X20387000Y13604828D01*
X23746350Y16964177D01*
X23782433Y16957000D01*
X23969567Y16957000D01*
X24153105Y16993508D01*
X24325994Y17065121D01*
X24481590Y17169087D01*
X24613913Y17301410D01*
X24717879Y17457006D01*
X24789492Y17629895D01*
X24826000Y17813433D01*
X24826000Y18000567D01*
X24789492Y18184105D01*
X24717879Y18356994D01*
X24613913Y18512590D01*
X24481590Y18644913D01*
X24325994Y18748879D01*
X24153105Y18820492D01*
X23969567Y18857000D01*
X23782433Y18857000D01*
X23598895Y18820492D01*
X23426006Y18748879D01*
X23270410Y18644913D01*
X23138087Y18512590D01*
X23034121Y18356994D01*
X22962508Y18184105D01*
X22926000Y18000567D01*
X22926000Y17813433D01*
X22933177Y17777350D01*
X19425389Y14269561D01*
X19403447Y14251554D01*
X19385441Y14229613D01*
X19331592Y14163998D01*
X19278199Y14064107D01*
X19245321Y13955719D01*
X19234218Y13843000D01*
X19237001Y13814747D01*
X19237000Y11929173D01*
X13589566Y17576606D01*
X13571554Y17598554D01*
X13483998Y17670408D01*
X13384108Y17723801D01*
X13275720Y17756680D01*
X13191246Y17765000D01*
X13191243Y17765000D01*
X13163000Y17767782D01*
X13134757Y17765000D01*
X7308353Y17765000D01*
X7287913Y17795590D01*
X7155590Y17927913D01*
X6999994Y18031879D01*
X6827105Y18103492D01*
X6643567Y18140000D01*
X6456433Y18140000D01*
X6272895Y18103492D01*
X6100006Y18031879D01*
X5944410Y17927913D01*
X5812087Y17795590D01*
X5708121Y17639994D01*
X5636508Y17467105D01*
X5600000Y17283567D01*
X525000Y17283567D01*
X525000Y23395200D01*
X739297Y23395200D01*
X767283Y23111050D01*
X850167Y22837820D01*
X984762Y22586010D01*
X1165897Y22365297D01*
X1386610Y22184162D01*
X1638420Y22049567D01*
X1911650Y21966683D01*
X2124595Y21945710D01*
X2267005Y21945710D01*
X2479950Y21966683D01*
X2753180Y22049567D01*
X3004990Y22184162D01*
X3225703Y22365297D01*
X3406838Y22586010D01*
X3541433Y22837820D01*
X3624317Y23111050D01*
X3652303Y23395200D01*
X3624317Y23679350D01*
X3541433Y23952580D01*
X3406838Y24204390D01*
X3225703Y24425103D01*
X3004990Y24606238D01*
X2753180Y24740833D01*
X2479950Y24823717D01*
X2267005Y24844690D01*
X2124595Y24844690D01*
X1911650Y24823717D01*
X1638420Y24740833D01*
X1386610Y24606238D01*
X1165897Y24425103D01*
X984762Y24204390D01*
X850167Y23952580D01*
X767283Y23679350D01*
X739297Y23395200D01*
X525000Y23395200D01*
X525000Y31015200D01*
X739297Y31015200D01*
X767283Y30731050D01*
X850167Y30457820D01*
X984762Y30206010D01*
X1165897Y29985297D01*
X1386610Y29804162D01*
X1496920Y29745200D01*
X1386610Y29686238D01*
X1165897Y29505103D01*
X984762Y29284390D01*
X850167Y29032580D01*
X767283Y28759350D01*
X739297Y28475200D01*
X767283Y28191050D01*
X850167Y27917820D01*
X984762Y27666010D01*
X1165897Y27445297D01*
X1386610Y27264162D01*
X1638420Y27129567D01*
X1911650Y27046683D01*
X2124595Y27025710D01*
X2267005Y27025710D01*
X2479950Y27046683D01*
X2753180Y27129567D01*
X3004990Y27264162D01*
X3225703Y27445297D01*
X3406838Y27666010D01*
X3467767Y27780000D01*
X5120613Y27780000D01*
X5155000Y27776613D01*
X5189387Y27780000D01*
X5189390Y27780000D01*
X5292224Y27790128D01*
X5424175Y27830155D01*
X5438521Y27837823D01*
X5800000Y27837823D01*
X5888215Y27846511D01*
X5973041Y27872243D01*
X5984585Y27878414D01*
X12977962Y20885037D01*
X12996027Y20863025D01*
X13054545Y20815000D01*
X4228353Y20815000D01*
X4207913Y20845590D01*
X4075590Y20977913D01*
X3919994Y21081879D01*
X3747105Y21153492D01*
X3563567Y21190000D01*
X3376433Y21190000D01*
X3192895Y21153492D01*
X3020006Y21081879D01*
X2864410Y20977913D01*
X2732087Y20845590D01*
X2628121Y20689994D01*
X2556508Y20517105D01*
X2520000Y20333567D01*
X2520000Y20146433D01*
X2556508Y19962895D01*
X2628121Y19790006D01*
X2732087Y19634410D01*
X2864410Y19502087D01*
X3020006Y19398121D01*
X3192895Y19326508D01*
X3376433Y19290000D01*
X3563567Y19290000D01*
X3747105Y19326508D01*
X3919994Y19398121D01*
X4075590Y19502087D01*
X4207913Y19634410D01*
X4228353Y19665000D01*
X14508284Y19665000D01*
X14438121Y19559994D01*
X14366508Y19387105D01*
X14330000Y19203567D01*
X14330000Y19016433D01*
X14366508Y18832895D01*
X14438121Y18660006D01*
X14542087Y18504410D01*
X14674410Y18372087D01*
X14830006Y18268121D01*
X15002895Y18196508D01*
X15186433Y18160000D01*
X15373567Y18160000D01*
X15557105Y18196508D01*
X15729994Y18268121D01*
X15885590Y18372087D01*
X16017913Y18504410D01*
X16121879Y18660006D01*
X16193492Y18832895D01*
X16230000Y19016433D01*
X16230000Y19115000D01*
X29121757Y19115000D01*
X29150000Y19112218D01*
X29178243Y19115000D01*
X29178246Y19115000D01*
X29262720Y19123320D01*
X29371108Y19156199D01*
X29470998Y19209592D01*
X29558554Y19281446D01*
X29576565Y19303393D01*
X29700350Y19427177D01*
X29733722Y19420539D01*
X29721198Y19397108D01*
X29688320Y19288720D01*
X29677217Y19176001D01*
X29680000Y19147748D01*
X29679999Y13393244D01*
X29677217Y13365001D01*
X29679999Y13336758D01*
X29679999Y13336756D01*
X29688319Y13252282D01*
X29707781Y13188125D01*
X29721198Y13143894D01*
X29774591Y13044003D01*
X29789503Y13025833D01*
X29846445Y12956447D01*
X29868392Y12938436D01*
X31767177Y11039650D01*
X31760000Y11003567D01*
X31760000Y10816433D01*
X31796508Y10632895D01*
X31868121Y10460006D01*
X31972087Y10304410D01*
X32104410Y10172087D01*
X32197296Y10110023D01*
X32074410Y10027913D01*
X31942087Y9895590D01*
X31838121Y9739994D01*
X31766508Y9567105D01*
X31730000Y9383567D01*
X31730000Y9196433D01*
X31766508Y9012895D01*
X31838121Y8840006D01*
X31942087Y8684410D01*
X32074410Y8552087D01*
X32230006Y8448121D01*
X32402895Y8376508D01*
X32586433Y8340000D01*
X32773567Y8340000D01*
X32957105Y8376508D01*
X33129994Y8448121D01*
X33285590Y8552087D01*
X33417913Y8684410D01*
X33438353Y8715000D01*
X62041757Y8715000D01*
X62070000Y8712218D01*
X62098243Y8715000D01*
X62098246Y8715000D01*
X62182720Y8723320D01*
X62291108Y8756199D01*
X62390998Y8809592D01*
X62478554Y8881446D01*
X62496566Y8903393D01*
X64916199Y11323026D01*
X64893145Y11279896D01*
X64818810Y11034845D01*
X64793710Y10780000D01*
X64818810Y10525155D01*
X64893145Y10280104D01*
X65013860Y10054264D01*
X65176313Y9856313D01*
X65374264Y9693860D01*
X65600104Y9573145D01*
X65845155Y9498810D01*
X66036136Y9480000D01*
X66163864Y9480000D01*
X66354845Y9498810D01*
X66599896Y9573145D01*
X66825736Y9693860D01*
X67023687Y9856313D01*
X67186140Y10054264D01*
X67306855Y10280104D01*
X67381190Y10525155D01*
X67406290Y10780000D01*
X67381190Y11034845D01*
X67306855Y11279896D01*
X67186140Y11505736D01*
X67023687Y11703687D01*
X66825736Y11866140D01*
X66599896Y11986855D01*
X66391734Y12050000D01*
X66599896Y12113145D01*
X66825736Y12233860D01*
X67023687Y12396313D01*
X67186140Y12594264D01*
X67306855Y12820104D01*
X67381190Y13065155D01*
X67406290Y13320000D01*
X67381190Y13574845D01*
X67306855Y13819896D01*
X67186140Y14045736D01*
X67023687Y14243687D01*
X66825736Y14406140D01*
X66599896Y14526855D01*
X66391734Y14590000D01*
X66599896Y14653145D01*
X66825736Y14773860D01*
X67023687Y14936313D01*
X67186140Y15134264D01*
X67306855Y15360104D01*
X67381190Y15605155D01*
X67406290Y15860000D01*
X67381190Y16114845D01*
X67306855Y16359896D01*
X67186140Y16585736D01*
X67023687Y16783687D01*
X66825736Y16946140D01*
X66599896Y17066855D01*
X66354845Y17141190D01*
X66163864Y17160000D01*
X66036136Y17160000D01*
X65845155Y17141190D01*
X65600104Y17066855D01*
X65374264Y16946140D01*
X65176313Y16783687D01*
X65013860Y16585736D01*
X64893145Y16359896D01*
X64818810Y16114845D01*
X64793710Y15860000D01*
X64818810Y15605155D01*
X64893145Y15360104D01*
X65013860Y15134264D01*
X65176313Y14936313D01*
X65374264Y14773860D01*
X65600104Y14653145D01*
X65808266Y14590000D01*
X65600104Y14526855D01*
X65374264Y14406140D01*
X65176313Y14243687D01*
X65013860Y14045736D01*
X64893145Y13819896D01*
X64818810Y13574845D01*
X64793710Y13320000D01*
X64818810Y13065155D01*
X64868424Y12901597D01*
X61831828Y9865000D01*
X33438353Y9865000D01*
X33417913Y9895590D01*
X33285590Y10027913D01*
X33192704Y10089977D01*
X33315590Y10172087D01*
X33447913Y10304410D01*
X33551879Y10460006D01*
X33623492Y10632895D01*
X33660000Y10816433D01*
X33660000Y11003567D01*
X33653270Y11037402D01*
X33722087Y10934410D01*
X33854410Y10802087D01*
X34010006Y10698121D01*
X34182895Y10626508D01*
X34366433Y10590000D01*
X34553567Y10590000D01*
X34737105Y10626508D01*
X34909994Y10698121D01*
X35065590Y10802087D01*
X35197913Y10934410D01*
X35218353Y10965000D01*
X36741757Y10965000D01*
X36770000Y10962218D01*
X36798243Y10965000D01*
X36798246Y10965000D01*
X36882720Y10973320D01*
X36991108Y11006199D01*
X37090998Y11059592D01*
X37178554Y11131446D01*
X37196566Y11153394D01*
X41888173Y15845000D01*
X46649195Y15845000D01*
X46721786Y15806199D01*
X46830174Y15773320D01*
X46890027Y15767425D01*
X46912087Y15734410D01*
X47044410Y15602087D01*
X47200006Y15498121D01*
X47372895Y15426508D01*
X47556433Y15390000D01*
X47743567Y15390000D01*
X47927105Y15426508D01*
X48099994Y15498121D01*
X48255590Y15602087D01*
X48387913Y15734410D01*
X48491879Y15890006D01*
X48563492Y16062895D01*
X48600000Y16246433D01*
X48600000Y16433567D01*
X48591963Y16473970D01*
X48932215Y16133718D01*
X48919087Y16120590D01*
X48815121Y15964994D01*
X48743508Y15792105D01*
X48707000Y15608567D01*
X48707000Y15421433D01*
X48743508Y15237895D01*
X48815121Y15065006D01*
X48919087Y14909410D01*
X49051410Y14777087D01*
X49207006Y14673121D01*
X49379895Y14601508D01*
X49563433Y14565000D01*
X49750567Y14565000D01*
X49934105Y14601508D01*
X50106994Y14673121D01*
X50262590Y14777087D01*
X50394913Y14909410D01*
X50498879Y15065006D01*
X50570492Y15237895D01*
X50607000Y15421433D01*
X50607000Y15608567D01*
X50570492Y15792105D01*
X50498879Y15964994D01*
X50394913Y16120590D01*
X50262590Y16252913D01*
X50229575Y16274973D01*
X50223680Y16334826D01*
X50190801Y16443214D01*
X50142959Y16532719D01*
X50137408Y16543105D01*
X50083559Y16608720D01*
X50065554Y16630660D01*
X50043612Y16648667D01*
X48525671Y18166607D01*
X48507660Y18188554D01*
X48420104Y18260408D01*
X48320214Y18313801D01*
X48211826Y18346680D01*
X48127352Y18355000D01*
X48127349Y18355000D01*
X48099106Y18357782D01*
X48070863Y18355000D01*
X40509353Y18355000D01*
X40488913Y18385590D01*
X40356590Y18517913D01*
X40200994Y18621879D01*
X40028105Y18693492D01*
X39844567Y18730000D01*
X39657433Y18730000D01*
X39473895Y18693492D01*
X39301006Y18621879D01*
X39145410Y18517913D01*
X39013087Y18385590D01*
X38909121Y18229994D01*
X38837508Y18057105D01*
X38801000Y17873567D01*
X38801000Y17686433D01*
X38837508Y17502895D01*
X38909121Y17330006D01*
X39013087Y17174410D01*
X39145410Y17042087D01*
X39301006Y16938121D01*
X39473895Y16866508D01*
X39657433Y16830000D01*
X39844567Y16830000D01*
X40028105Y16866508D01*
X40200994Y16938121D01*
X40356590Y17042087D01*
X40488913Y17174410D01*
X40509353Y17205000D01*
X47255825Y17205000D01*
X47200006Y17181879D01*
X47044410Y17077913D01*
X46955189Y16988692D01*
X46891140Y16995000D01*
X46891137Y16995000D01*
X46862894Y16997782D01*
X46834651Y16995000D01*
X41678242Y16995000D01*
X41649999Y16997782D01*
X41621756Y16995000D01*
X41621754Y16995000D01*
X41537280Y16986680D01*
X41439438Y16957000D01*
X41428892Y16953801D01*
X41329001Y16900408D01*
X41290733Y16869002D01*
X41241446Y16828554D01*
X41223439Y16806612D01*
X36531828Y12115000D01*
X35218353Y12115000D01*
X35197913Y12145590D01*
X35065590Y12277913D01*
X34909994Y12381879D01*
X34737105Y12453492D01*
X34553567Y12490000D01*
X34366433Y12490000D01*
X34182895Y12453492D01*
X34010006Y12381879D01*
X33854410Y12277913D01*
X33722087Y12145590D01*
X33618121Y11989994D01*
X33546508Y11817105D01*
X33510000Y11633567D01*
X33510000Y11446433D01*
X33516730Y11412598D01*
X33447913Y11515590D01*
X33315590Y11647913D01*
X33159994Y11751879D01*
X32987105Y11823492D01*
X32803567Y11860000D01*
X32616433Y11860000D01*
X32580350Y11852823D01*
X30829999Y13603173D01*
X30829999Y17828418D01*
X30882895Y17806508D01*
X31066433Y17770000D01*
X31253567Y17770000D01*
X31437105Y17806508D01*
X31609994Y17878121D01*
X31765590Y17982087D01*
X31897913Y18114410D01*
X32001879Y18270006D01*
X32073492Y18442895D01*
X32110000Y18626433D01*
X32110000Y18813567D01*
X32102823Y18849651D01*
X35415683Y22162511D01*
X63350000Y22162511D01*
X63350000Y21837489D01*
X63413408Y21518713D01*
X63537789Y21218432D01*
X63718361Y20948186D01*
X63948186Y20718361D01*
X64218432Y20537789D01*
X64518713Y20413408D01*
X64837489Y20350000D01*
X65162511Y20350000D01*
X65481287Y20413408D01*
X65781568Y20537789D01*
X66051814Y20718361D01*
X66281639Y20948186D01*
X66462211Y21218432D01*
X66586592Y21518713D01*
X66650000Y21837489D01*
X66650000Y22162511D01*
X66586592Y22481287D01*
X66462211Y22781568D01*
X66281639Y23051814D01*
X66051814Y23281639D01*
X65781568Y23462211D01*
X65481287Y23586592D01*
X65162511Y23650000D01*
X64837489Y23650000D01*
X64518713Y23586592D01*
X64218432Y23462211D01*
X63948186Y23281639D01*
X63718361Y23051814D01*
X63537789Y22781568D01*
X63413408Y22481287D01*
X63350000Y22162511D01*
X35415683Y22162511D01*
X48488173Y35235000D01*
X53271647Y35235000D01*
X53292087Y35204410D01*
X53424410Y35072087D01*
X53580006Y34968121D01*
X53752895Y34896508D01*
X53936433Y34860000D01*
X54123567Y34860000D01*
X54307105Y34896508D01*
X54479994Y34968121D01*
X54635590Y35072087D01*
X54767913Y35204410D01*
X54871879Y35360006D01*
X54943492Y35532895D01*
X54980000Y35716433D01*
X54980000Y35903567D01*
X54943492Y36087105D01*
X54871879Y36259994D01*
X54767913Y36415590D01*
X54635590Y36547913D01*
X54479994Y36651879D01*
X54307105Y36723492D01*
X54123567Y36760000D01*
X53936433Y36760000D01*
X53752895Y36723492D01*
X53580006Y36651879D01*
X53424410Y36547913D01*
X53292087Y36415590D01*
X53271647Y36385000D01*
X48278242Y36385000D01*
X48249999Y36387782D01*
X48221756Y36385000D01*
X48221754Y36385000D01*
X48137280Y36376680D01*
X48028892Y36343801D01*
X47971478Y36313112D01*
X47929001Y36290408D01*
X47898417Y36265308D01*
X47841446Y36218554D01*
X47823439Y36196612D01*
X31289651Y19662823D01*
X31253567Y19670000D01*
X31230001Y19670000D01*
X31230001Y23998627D01*
X31232783Y24026870D01*
X31226565Y24090000D01*
X31221681Y24139589D01*
X31188802Y24247977D01*
X31174709Y24274343D01*
X31135409Y24347868D01*
X31081560Y24413483D01*
X31063555Y24435423D01*
X31041613Y24453430D01*
X29425965Y26069077D01*
X29433142Y26105161D01*
X29433142Y26292295D01*
X29396634Y26475833D01*
X29325021Y26648722D01*
X29221055Y26804318D01*
X29088732Y26936641D01*
X28933136Y27040607D01*
X28760247Y27112220D01*
X28576709Y27148728D01*
X28389575Y27148728D01*
X28206037Y27112220D01*
X28033148Y27040607D01*
X27877552Y26936641D01*
X27745229Y26804318D01*
X27641263Y26648722D01*
X27569650Y26475833D01*
X27533142Y26292295D01*
X27533142Y26105161D01*
X27569650Y25921623D01*
X27641263Y25748734D01*
X27745229Y25593138D01*
X27877552Y25460815D01*
X28033148Y25356849D01*
X28206037Y25285236D01*
X28389575Y25248728D01*
X28576709Y25248728D01*
X28612793Y25255905D01*
X30080002Y23788695D01*
X30080001Y21288883D01*
X29923567Y21320000D01*
X29736433Y21320000D01*
X29552895Y21283492D01*
X29380006Y21211879D01*
X29224410Y21107913D01*
X29092087Y20975590D01*
X28988121Y20819994D01*
X28916508Y20647105D01*
X28880000Y20463567D01*
X28880000Y20276433D01*
X28882274Y20265000D01*
X25374114Y20265000D01*
X25457105Y20281508D01*
X25629994Y20353121D01*
X25785590Y20457087D01*
X25849174Y20520671D01*
X25924253Y20470504D01*
X26097142Y20398891D01*
X26280680Y20362383D01*
X26467814Y20362383D01*
X26651352Y20398891D01*
X26824241Y20470504D01*
X26979837Y20574470D01*
X27112160Y20706793D01*
X27216126Y20862389D01*
X27287739Y21035278D01*
X27324247Y21218816D01*
X27324247Y21405950D01*
X27287739Y21589488D01*
X27216126Y21762377D01*
X27112160Y21917973D01*
X26979837Y22050296D01*
X26949247Y22070736D01*
X26949247Y28627803D01*
X26985590Y28652087D01*
X27117913Y28784410D01*
X27221879Y28940006D01*
X27293492Y29112895D01*
X27330000Y29296433D01*
X27330000Y29483567D01*
X27293492Y29667105D01*
X27221879Y29839994D01*
X27117913Y29995590D01*
X26985590Y30127913D01*
X26829994Y30231879D01*
X26657105Y30303492D01*
X26473567Y30340000D01*
X26286433Y30340000D01*
X26102895Y30303492D01*
X25930006Y30231879D01*
X25774410Y30127913D01*
X25642087Y29995590D01*
X25538121Y29839994D01*
X25466508Y29667105D01*
X25430000Y29483567D01*
X25430000Y29296433D01*
X25466508Y29112895D01*
X25538121Y28940006D01*
X25642087Y28784410D01*
X25774410Y28652087D01*
X25799248Y28635491D01*
X25799247Y22070736D01*
X25768657Y22050296D01*
X25705073Y21986712D01*
X25629994Y22036879D01*
X25457105Y22108492D01*
X25273567Y22145000D01*
X25255001Y22145000D01*
X25255001Y29741757D01*
X25257783Y29770000D01*
X25254203Y29806349D01*
X25246681Y29882719D01*
X25213802Y29991107D01*
X25180780Y30052886D01*
X25160409Y30090998D01*
X25111408Y30150706D01*
X25088555Y30178553D01*
X25066613Y30196560D01*
X20650000Y34613172D01*
X20650000Y34793567D01*
X20613492Y34977105D01*
X20541879Y35149994D01*
X20437913Y35305590D01*
X20305590Y35437913D01*
X20149994Y35541879D01*
X19977105Y35613492D01*
X19793567Y35650000D01*
X19606433Y35650000D01*
X19422895Y35613492D01*
X19250006Y35541879D01*
X19094410Y35437913D01*
X18962087Y35305590D01*
X18858121Y35149994D01*
X18786508Y34977105D01*
X18750000Y34793567D01*
X18750000Y34606433D01*
X18786508Y34422895D01*
X18858121Y34250006D01*
X18962087Y34094410D01*
X19094410Y33962087D01*
X19250006Y33858121D01*
X19422895Y33786508D01*
X19606433Y33750000D01*
X19793567Y33750000D01*
X19871355Y33765473D01*
X24105002Y29531825D01*
X24105001Y21723242D01*
X24102219Y21694999D01*
X24105001Y21666756D01*
X24105001Y21666754D01*
X24113321Y21582280D01*
X24132150Y21520210D01*
X24146200Y21473892D01*
X24199593Y21374001D01*
X24209371Y21362087D01*
X24237746Y21327511D01*
X24230000Y21288567D01*
X24230000Y21101433D01*
X24266508Y20917895D01*
X24338121Y20745006D01*
X24442087Y20589410D01*
X24574410Y20457087D01*
X24730006Y20353121D01*
X24902895Y20281508D01*
X24985886Y20265000D01*
X20628172Y20265000D01*
X22351613Y21988440D01*
X22373555Y22006447D01*
X22421068Y22064343D01*
X22445409Y22094002D01*
X22498802Y22193893D01*
X22504632Y22213112D01*
X22531681Y22302281D01*
X22540001Y22386755D01*
X22540001Y22386758D01*
X22542783Y22415001D01*
X22540001Y22443244D01*
X22540001Y26416756D01*
X22542783Y26444999D01*
X22539746Y26475833D01*
X22531681Y26557719D01*
X22498802Y26666107D01*
X22445409Y26765997D01*
X22373555Y26853553D01*
X22351614Y26871559D01*
X21275000Y27948172D01*
X21275000Y29681647D01*
X21305590Y29702087D01*
X21437913Y29834410D01*
X21541879Y29990006D01*
X21613492Y30162895D01*
X21650000Y30346433D01*
X21650000Y30533567D01*
X21613492Y30717105D01*
X21541879Y30889994D01*
X21437913Y31045590D01*
X21305590Y31177913D01*
X21149994Y31281879D01*
X20977105Y31353492D01*
X20793567Y31390000D01*
X20606433Y31390000D01*
X20422895Y31353492D01*
X20250006Y31281879D01*
X20094410Y31177913D01*
X19962087Y31045590D01*
X19858121Y30889994D01*
X19786508Y30717105D01*
X19750000Y30533567D01*
X19750000Y30346433D01*
X19786508Y30162895D01*
X19858121Y29990006D01*
X19962087Y29834410D01*
X20094410Y29702087D01*
X20125000Y29681647D01*
X20125001Y27738253D01*
X20122218Y27710000D01*
X20133321Y27597281D01*
X20166199Y27488893D01*
X20219592Y27389002D01*
X20265441Y27333135D01*
X20291447Y27301446D01*
X20313389Y27283439D01*
X21390001Y26206826D01*
X21390001Y25958883D01*
X21233567Y25990000D01*
X21046433Y25990000D01*
X20862895Y25953492D01*
X20690006Y25881879D01*
X20534410Y25777913D01*
X20402087Y25645590D01*
X20298121Y25489994D01*
X20226508Y25317105D01*
X20190000Y25133567D01*
X20190000Y24946433D01*
X20196708Y24912709D01*
X17133998Y21849999D01*
X16058883Y21849999D01*
X16090000Y22006433D01*
X16090000Y22193567D01*
X16053492Y22377105D01*
X15981879Y22549994D01*
X15877913Y22705590D01*
X15745590Y22837913D01*
X15589994Y22941879D01*
X15417105Y23013492D01*
X15233567Y23050000D01*
X15046433Y23050000D01*
X15012709Y23043292D01*
X13007000Y25049001D01*
X13007000Y35442984D01*
X13035590Y35462087D01*
X13167913Y35594410D01*
X13271879Y35750006D01*
X13343492Y35922895D01*
X13380000Y36106433D01*
X13380000Y36293567D01*
X13343492Y36477105D01*
X13271879Y36649994D01*
X13167913Y36805590D01*
X13035590Y36937913D01*
X12879994Y37041879D01*
X12707105Y37113492D01*
X12523567Y37150000D01*
X12336433Y37150000D01*
X12152895Y37113492D01*
X11980006Y37041879D01*
X11824410Y36937913D01*
X11692087Y36805590D01*
X11588121Y36649994D01*
X11516508Y36477105D01*
X11480000Y36293567D01*
X11480000Y36106433D01*
X11516508Y35922895D01*
X11588121Y35750006D01*
X11692087Y35594410D01*
X11824410Y35462087D01*
X11853000Y35442984D01*
X11853001Y24838341D01*
X11850210Y24810000D01*
X11861349Y24696889D01*
X11892698Y24593549D01*
X11894344Y24588124D01*
X11947922Y24487885D01*
X11978840Y24450212D01*
X12001963Y24422036D01*
X12001966Y24422033D01*
X12020027Y24400026D01*
X12042034Y24381965D01*
X14196708Y22227291D01*
X14190000Y22193567D01*
X14190000Y22006433D01*
X14221117Y21849999D01*
X13645002Y21849999D01*
X6482039Y29012962D01*
X6463974Y29034974D01*
X6376115Y29107079D01*
X6275876Y29160657D01*
X6211770Y29180103D01*
X6188892Y29187044D01*
X6175971Y29211216D01*
X6119737Y29279737D01*
X6051216Y29335971D01*
X5973041Y29377757D01*
X5888215Y29403489D01*
X5800000Y29412177D01*
X4800000Y29412177D01*
X4711785Y29403489D01*
X4626959Y29377757D01*
X4548784Y29335971D01*
X4480263Y29279737D01*
X4424029Y29211216D01*
X4407343Y29180000D01*
X3462636Y29180000D01*
X3406838Y29284390D01*
X3225703Y29505103D01*
X3004990Y29686238D01*
X2894680Y29745200D01*
X3004990Y29804162D01*
X3225703Y29985297D01*
X3406838Y30206010D01*
X3467767Y30320000D01*
X4347823Y30320000D01*
X4347823Y30040000D01*
X4356511Y29951785D01*
X4382243Y29866959D01*
X4424029Y29788784D01*
X4480263Y29720263D01*
X4548784Y29664029D01*
X4626959Y29622243D01*
X4711785Y29596511D01*
X4800000Y29587823D01*
X5800000Y29587823D01*
X5888215Y29596511D01*
X5973041Y29622243D01*
X6051216Y29664029D01*
X6119737Y29720263D01*
X6175971Y29788784D01*
X6217757Y29866959D01*
X6243489Y29951785D01*
X6252177Y30040000D01*
X6252177Y30346176D01*
X7747962Y31841961D01*
X7769974Y31860026D01*
X7842079Y31947885D01*
X7895657Y32048124D01*
X7909204Y32092782D01*
X7928651Y32156888D01*
X7939791Y32270000D01*
X7937000Y32298339D01*
X7937000Y32392984D01*
X7965590Y32412087D01*
X8097913Y32544410D01*
X8201879Y32700006D01*
X8273492Y32872895D01*
X8310000Y33056433D01*
X8310000Y33243567D01*
X8273492Y33427105D01*
X8201879Y33599994D01*
X8097913Y33755590D01*
X7965590Y33887913D01*
X7809994Y33991879D01*
X7637105Y34063492D01*
X7453567Y34100000D01*
X7266433Y34100000D01*
X7082895Y34063492D01*
X6910006Y33991879D01*
X6754410Y33887913D01*
X6622087Y33755590D01*
X6518121Y33599994D01*
X6446508Y33427105D01*
X6410000Y33243567D01*
X6410000Y33056433D01*
X6446508Y32872895D01*
X6518121Y32700006D01*
X6622087Y32544410D01*
X6720248Y32446249D01*
X5469474Y31195475D01*
X5174296Y31490653D01*
X5152370Y31517370D01*
X5045781Y31604845D01*
X4924175Y31669845D01*
X4792224Y31709872D01*
X4689390Y31720000D01*
X4689387Y31720000D01*
X4655000Y31723387D01*
X4620613Y31720000D01*
X3462636Y31720000D01*
X3406838Y31824390D01*
X3225703Y32045103D01*
X3004990Y32226238D01*
X2753180Y32360833D01*
X2479950Y32443717D01*
X2267005Y32464690D01*
X2124595Y32464690D01*
X1911650Y32443717D01*
X1638420Y32360833D01*
X1386610Y32226238D01*
X1165897Y32045103D01*
X984762Y31824390D01*
X850167Y31572580D01*
X767283Y31299350D01*
X739297Y31015200D01*
X525000Y31015200D01*
X525000Y37094690D01*
X744133Y37094690D01*
X744133Y35095710D01*
X752821Y35007495D01*
X778553Y34922669D01*
X820339Y34844494D01*
X876573Y34775973D01*
X945094Y34719739D01*
X1023269Y34677953D01*
X1108095Y34652221D01*
X1196310Y34643533D01*
X3195290Y34643533D01*
X3283505Y34652221D01*
X3368331Y34677953D01*
X3446506Y34719739D01*
X3515027Y34775973D01*
X3571261Y34844494D01*
X3613047Y34922669D01*
X3638779Y35007495D01*
X3647467Y35095710D01*
X3647467Y37094690D01*
X3640788Y37162511D01*
X7350000Y37162511D01*
X7350000Y36837489D01*
X7413408Y36518713D01*
X7537789Y36218432D01*
X7718361Y35948186D01*
X7948186Y35718361D01*
X8218432Y35537789D01*
X8518713Y35413408D01*
X8837489Y35350000D01*
X9162511Y35350000D01*
X9481287Y35413408D01*
X9781568Y35537789D01*
X10051814Y35718361D01*
X10281639Y35948186D01*
X10462211Y36218432D01*
X10586592Y36518713D01*
X10650000Y36837489D01*
X10650000Y37162511D01*
X10586592Y37481287D01*
X10462211Y37781568D01*
X10281639Y38051814D01*
X10051814Y38281639D01*
X9781568Y38462211D01*
X9481287Y38586592D01*
X9162511Y38650000D01*
X8837489Y38650000D01*
X8518713Y38586592D01*
X8218432Y38462211D01*
X7948186Y38281639D01*
X7718361Y38051814D01*
X7537789Y37781568D01*
X7413408Y37481287D01*
X7350000Y37162511D01*
X3640788Y37162511D01*
X3638779Y37182905D01*
X3613047Y37267731D01*
X3571261Y37345906D01*
X3515027Y37414427D01*
X3446506Y37470661D01*
X3368331Y37512447D01*
X3283505Y37538179D01*
X3195290Y37546867D01*
X1196310Y37546867D01*
X1108095Y37538179D01*
X1023269Y37512447D01*
X945094Y37470661D01*
X876573Y37414427D01*
X820339Y37345906D01*
X778553Y37267731D01*
X752821Y37182905D01*
X744133Y37094690D01*
X525000Y37094690D01*
X525000Y39475000D01*
X69575000Y39475000D01*
X69575001Y37625798D01*
G36*
X83575000Y525000D02*
G01*
X72525000Y525000D01*
X72525000Y3174212D01*
X72527540Y3200000D01*
X72517403Y3302918D01*
X72487383Y3401881D01*
X72438633Y3493086D01*
X72373027Y3573027D01*
X72293086Y3638633D01*
X72201881Y3687383D01*
X72159252Y3700314D01*
X72162503Y5000672D01*
X72201881Y5012617D01*
X72293086Y5061367D01*
X72373027Y5126973D01*
X72438633Y5206914D01*
X72487383Y5298119D01*
X72517403Y5397082D01*
X72525000Y5474212D01*
X72527540Y5500000D01*
X72525000Y5525788D01*
X72525000Y23074212D01*
X72527540Y23100000D01*
X72517403Y23202918D01*
X72487383Y23301881D01*
X72438633Y23393086D01*
X72373027Y23473027D01*
X72342813Y23497823D01*
X72440000Y23497823D01*
X72528215Y23506511D01*
X72613041Y23532243D01*
X72691216Y23574029D01*
X72759737Y23630263D01*
X72815971Y23698784D01*
X72843347Y23750000D01*
X73393346Y23750000D01*
X73440000Y23745405D01*
X73486654Y23750000D01*
X73486665Y23750000D01*
X73626232Y23763746D01*
X73805308Y23818068D01*
X73970345Y23906282D01*
X74115001Y24024999D01*
X74144750Y24061248D01*
X74679752Y24596250D01*
X74716001Y24625999D01*
X74834718Y24770655D01*
X74922932Y24935692D01*
X74977254Y25114768D01*
X74991000Y25254335D01*
X74991000Y25254344D01*
X74995595Y25300999D01*
X74991000Y25347654D01*
X74991000Y30941346D01*
X74995595Y30988001D01*
X74991000Y31034655D01*
X74991000Y31034665D01*
X74977254Y31174232D01*
X74922932Y31353308D01*
X74864000Y31463562D01*
X74864000Y32478567D01*
X74854850Y32524567D01*
X74850254Y32571232D01*
X74836642Y32616105D01*
X74827492Y32662105D01*
X74809544Y32705436D01*
X74795932Y32750308D01*
X74773827Y32791663D01*
X74755879Y32834994D01*
X74729823Y32873990D01*
X74707718Y32915345D01*
X74677971Y32951592D01*
X74651913Y32990590D01*
X74618745Y33023758D01*
X74589001Y33060001D01*
X74552758Y33089745D01*
X74519590Y33122913D01*
X74480592Y33148971D01*
X74444345Y33178718D01*
X74402990Y33200823D01*
X74363994Y33226879D01*
X74320663Y33244827D01*
X74279308Y33266932D01*
X74234436Y33280544D01*
X74191105Y33298492D01*
X74145105Y33307642D01*
X74100232Y33321254D01*
X74053567Y33325850D01*
X74007567Y33335000D01*
X73960665Y33335000D01*
X73914000Y33339596D01*
X73867336Y33335000D01*
X73820433Y33335000D01*
X73774432Y33325850D01*
X73727769Y33321254D01*
X73682898Y33307643D01*
X73636895Y33298492D01*
X73593562Y33280543D01*
X73548693Y33266932D01*
X73507341Y33244829D01*
X73464006Y33226879D01*
X73425006Y33200820D01*
X73383656Y33178718D01*
X73347413Y33148974D01*
X73308410Y33122913D01*
X73275238Y33089741D01*
X73239000Y33060001D01*
X73209260Y33023763D01*
X73176087Y32990590D01*
X73150025Y32951585D01*
X73120283Y32915345D01*
X73098181Y32873996D01*
X73072121Y32834994D01*
X73054172Y32791661D01*
X73032068Y32750308D01*
X73018456Y32705436D01*
X73000508Y32662105D01*
X72991358Y32616105D01*
X72977746Y32571232D01*
X72973150Y32524567D01*
X72964000Y32478567D01*
X72964000Y31161654D01*
X72959405Y31115000D01*
X72964000Y31068346D01*
X72964000Y31021433D01*
X72973150Y30975432D01*
X72977746Y30928769D01*
X72991357Y30883898D01*
X73000508Y30837895D01*
X73018457Y30794562D01*
X73032068Y30749693D01*
X73054171Y30708340D01*
X73072121Y30665006D01*
X73091001Y30636750D01*
X73091000Y25694502D01*
X73046498Y25650000D01*
X72843347Y25650000D01*
X72815971Y25701216D01*
X72759737Y25769737D01*
X72691216Y25825971D01*
X72613041Y25867757D01*
X72528215Y25893489D01*
X72440000Y25902177D01*
X72434745Y25902177D01*
X72438633Y25906914D01*
X72487383Y25998119D01*
X72517403Y26097082D01*
X72527540Y26200000D01*
X72525000Y26225788D01*
X72525000Y34374212D01*
X72527540Y34400000D01*
X72517403Y34502918D01*
X72487383Y34601881D01*
X72438633Y34693086D01*
X72427660Y34706456D01*
X72428215Y34706511D01*
X72513041Y34732243D01*
X72591216Y34774029D01*
X72659737Y34830263D01*
X72715971Y34898784D01*
X72743347Y34950000D01*
X74513346Y34950000D01*
X74560000Y34945405D01*
X74606654Y34950000D01*
X74606665Y34950000D01*
X74746232Y34963746D01*
X74925308Y35018068D01*
X75090345Y35106282D01*
X75235001Y35224999D01*
X75264750Y35261248D01*
X75510000Y35506498D01*
X75510001Y1933572D01*
X75510000Y1933567D01*
X75510000Y1886665D01*
X75505404Y1840000D01*
X75510000Y1793335D01*
X75510000Y1746433D01*
X75519150Y1700433D01*
X75523746Y1653768D01*
X75537358Y1608895D01*
X75546508Y1562895D01*
X75564456Y1519564D01*
X75578068Y1474692D01*
X75600173Y1433337D01*
X75618121Y1390006D01*
X75644177Y1351010D01*
X75666282Y1309655D01*
X75696029Y1273408D01*
X75722087Y1234410D01*
X75755255Y1201242D01*
X75784999Y1164999D01*
X75821242Y1135255D01*
X75854410Y1102087D01*
X75893408Y1076029D01*
X75929655Y1046282D01*
X75971010Y1024177D01*
X76010006Y998121D01*
X76053337Y980173D01*
X76094692Y958068D01*
X76139564Y944456D01*
X76182895Y926508D01*
X76228895Y917358D01*
X76273768Y903746D01*
X76320433Y899150D01*
X76366433Y890000D01*
X76413336Y890000D01*
X76460000Y885404D01*
X76506665Y890000D01*
X78233567Y890000D01*
X78279567Y899150D01*
X78326232Y903746D01*
X78371105Y917358D01*
X78417105Y926508D01*
X78460436Y944456D01*
X78505308Y958068D01*
X78546663Y980173D01*
X78589994Y998121D01*
X78628990Y1024177D01*
X78670345Y1046282D01*
X78706592Y1076029D01*
X78745590Y1102087D01*
X78778758Y1135255D01*
X78815001Y1164999D01*
X78844745Y1201242D01*
X78877913Y1234410D01*
X78903971Y1273408D01*
X78933718Y1309655D01*
X78955823Y1351010D01*
X78981879Y1390006D01*
X78999827Y1433337D01*
X79021932Y1474692D01*
X79035544Y1519564D01*
X79053492Y1562895D01*
X79062642Y1608895D01*
X79076254Y1653768D01*
X79080850Y1700433D01*
X79090000Y1746433D01*
X79090000Y1793335D01*
X79094596Y1840000D01*
X79090000Y1886665D01*
X79090000Y1933567D01*
X79080850Y1979567D01*
X79076254Y2026232D01*
X79062642Y2071105D01*
X79053492Y2117105D01*
X79035544Y2160436D01*
X79021932Y2205308D01*
X78999827Y2246663D01*
X78981879Y2289994D01*
X78955823Y2328990D01*
X78933718Y2370345D01*
X78903971Y2406592D01*
X78877913Y2445590D01*
X78844745Y2478758D01*
X78815001Y2515001D01*
X78778758Y2544745D01*
X78745590Y2577913D01*
X78706592Y2603971D01*
X78670345Y2633718D01*
X78628990Y2655823D01*
X78589994Y2681879D01*
X78546663Y2699827D01*
X78505308Y2721932D01*
X78460436Y2735544D01*
X78417105Y2753492D01*
X78371105Y2762642D01*
X78326232Y2776254D01*
X78279567Y2780850D01*
X78233567Y2790000D01*
X77410000Y2790000D01*
X77410000Y36671690D01*
X77495303Y36741697D01*
X77553733Y36812894D01*
X77553733Y36772110D01*
X77562421Y36683895D01*
X77588153Y36599069D01*
X77629939Y36520894D01*
X77686173Y36452373D01*
X77754694Y36396139D01*
X77832869Y36354353D01*
X77917695Y36328621D01*
X78005910Y36319933D01*
X80004890Y36319933D01*
X80093105Y36328621D01*
X80177931Y36354353D01*
X80256106Y36396139D01*
X80324627Y36452373D01*
X80380861Y36520894D01*
X80422647Y36599069D01*
X80448379Y36683895D01*
X80457067Y36772110D01*
X80457067Y38771090D01*
X80448379Y38859305D01*
X80422647Y38944131D01*
X80380861Y39022306D01*
X80324627Y39090827D01*
X80256106Y39147061D01*
X80177931Y39188847D01*
X80093105Y39214579D01*
X80004890Y39223267D01*
X78005910Y39223267D01*
X77917695Y39214579D01*
X77832869Y39188847D01*
X77754694Y39147061D01*
X77686173Y39090827D01*
X77629939Y39022306D01*
X77588153Y38944131D01*
X77562421Y38859305D01*
X77553733Y38771090D01*
X77553733Y38730306D01*
X77495303Y38801503D01*
X77274590Y38982638D01*
X77022780Y39117233D01*
X76749550Y39200117D01*
X76536605Y39221090D01*
X76394195Y39221090D01*
X76181250Y39200117D01*
X75908020Y39117233D01*
X75656210Y38982638D01*
X75435497Y38801503D01*
X75254362Y38580790D01*
X75119767Y38328980D01*
X75036883Y38055750D01*
X75008897Y37771600D01*
X75015998Y37699501D01*
X74166498Y36850000D01*
X72743347Y36850000D01*
X72715971Y36901216D01*
X72659737Y36969737D01*
X72591216Y37025971D01*
X72513041Y37067757D01*
X72428215Y37093489D01*
X72340000Y37102177D01*
X72267465Y37102177D01*
X72301881Y37112617D01*
X72393086Y37161367D01*
X72473027Y37226973D01*
X72538633Y37306914D01*
X72587383Y37398119D01*
X72617403Y37497082D01*
X72627540Y37600000D01*
X72625000Y37625788D01*
X72625000Y39475000D01*
X83575001Y39475000D01*
X83575000Y525000D01*
X83575000Y525000D01*
G37*
X83575000Y525000D02*
X72525000Y525000D01*
X72525000Y3174212D01*
X72527540Y3200000D01*
X72517403Y3302918D01*
X72487383Y3401881D01*
X72438633Y3493086D01*
X72373027Y3573027D01*
X72293086Y3638633D01*
X72201881Y3687383D01*
X72159252Y3700314D01*
X72162503Y5000672D01*
X72201881Y5012617D01*
X72293086Y5061367D01*
X72373027Y5126973D01*
X72438633Y5206914D01*
X72487383Y5298119D01*
X72517403Y5397082D01*
X72525000Y5474212D01*
X72527540Y5500000D01*
X72525000Y5525788D01*
X72525000Y23074212D01*
X72527540Y23100000D01*
X72517403Y23202918D01*
X72487383Y23301881D01*
X72438633Y23393086D01*
X72373027Y23473027D01*
X72342813Y23497823D01*
X72440000Y23497823D01*
X72528215Y23506511D01*
X72613041Y23532243D01*
X72691216Y23574029D01*
X72759737Y23630263D01*
X72815971Y23698784D01*
X72843347Y23750000D01*
X73393346Y23750000D01*
X73440000Y23745405D01*
X73486654Y23750000D01*
X73486665Y23750000D01*
X73626232Y23763746D01*
X73805308Y23818068D01*
X73970345Y23906282D01*
X74115001Y24024999D01*
X74144750Y24061248D01*
X74679752Y24596250D01*
X74716001Y24625999D01*
X74834718Y24770655D01*
X74922932Y24935692D01*
X74977254Y25114768D01*
X74991000Y25254335D01*
X74991000Y25254344D01*
X74995595Y25300999D01*
X74991000Y25347654D01*
X74991000Y30941346D01*
X74995595Y30988001D01*
X74991000Y31034655D01*
X74991000Y31034665D01*
X74977254Y31174232D01*
X74922932Y31353308D01*
X74864000Y31463562D01*
X74864000Y32478567D01*
X74854850Y32524567D01*
X74850254Y32571232D01*
X74836642Y32616105D01*
X74827492Y32662105D01*
X74809544Y32705436D01*
X74795932Y32750308D01*
X74773827Y32791663D01*
X74755879Y32834994D01*
X74729823Y32873990D01*
X74707718Y32915345D01*
X74677971Y32951592D01*
X74651913Y32990590D01*
X74618745Y33023758D01*
X74589001Y33060001D01*
X74552758Y33089745D01*
X74519590Y33122913D01*
X74480592Y33148971D01*
X74444345Y33178718D01*
X74402990Y33200823D01*
X74363994Y33226879D01*
X74320663Y33244827D01*
X74279308Y33266932D01*
X74234436Y33280544D01*
X74191105Y33298492D01*
X74145105Y33307642D01*
X74100232Y33321254D01*
X74053567Y33325850D01*
X74007567Y33335000D01*
X73960665Y33335000D01*
X73914000Y33339596D01*
X73867336Y33335000D01*
X73820433Y33335000D01*
X73774432Y33325850D01*
X73727769Y33321254D01*
X73682898Y33307643D01*
X73636895Y33298492D01*
X73593562Y33280543D01*
X73548693Y33266932D01*
X73507341Y33244829D01*
X73464006Y33226879D01*
X73425006Y33200820D01*
X73383656Y33178718D01*
X73347413Y33148974D01*
X73308410Y33122913D01*
X73275238Y33089741D01*
X73239000Y33060001D01*
X73209260Y33023763D01*
X73176087Y32990590D01*
X73150025Y32951585D01*
X73120283Y32915345D01*
X73098181Y32873996D01*
X73072121Y32834994D01*
X73054172Y32791661D01*
X73032068Y32750308D01*
X73018456Y32705436D01*
X73000508Y32662105D01*
X72991358Y32616105D01*
X72977746Y32571232D01*
X72973150Y32524567D01*
X72964000Y32478567D01*
X72964000Y31161654D01*
X72959405Y31115000D01*
X72964000Y31068346D01*
X72964000Y31021433D01*
X72973150Y30975432D01*
X72977746Y30928769D01*
X72991357Y30883898D01*
X73000508Y30837895D01*
X73018457Y30794562D01*
X73032068Y30749693D01*
X73054171Y30708340D01*
X73072121Y30665006D01*
X73091001Y30636750D01*
X73091000Y25694502D01*
X73046498Y25650000D01*
X72843347Y25650000D01*
X72815971Y25701216D01*
X72759737Y25769737D01*
X72691216Y25825971D01*
X72613041Y25867757D01*
X72528215Y25893489D01*
X72440000Y25902177D01*
X72434745Y25902177D01*
X72438633Y25906914D01*
X72487383Y25998119D01*
X72517403Y26097082D01*
X72527540Y26200000D01*
X72525000Y26225788D01*
X72525000Y34374212D01*
X72527540Y34400000D01*
X72517403Y34502918D01*
X72487383Y34601881D01*
X72438633Y34693086D01*
X72427660Y34706456D01*
X72428215Y34706511D01*
X72513041Y34732243D01*
X72591216Y34774029D01*
X72659737Y34830263D01*
X72715971Y34898784D01*
X72743347Y34950000D01*
X74513346Y34950000D01*
X74560000Y34945405D01*
X74606654Y34950000D01*
X74606665Y34950000D01*
X74746232Y34963746D01*
X74925308Y35018068D01*
X75090345Y35106282D01*
X75235001Y35224999D01*
X75264750Y35261248D01*
X75510000Y35506498D01*
X75510001Y1933572D01*
X75510000Y1933567D01*
X75510000Y1886665D01*
X75505404Y1840000D01*
X75510000Y1793335D01*
X75510000Y1746433D01*
X75519150Y1700433D01*
X75523746Y1653768D01*
X75537358Y1608895D01*
X75546508Y1562895D01*
X75564456Y1519564D01*
X75578068Y1474692D01*
X75600173Y1433337D01*
X75618121Y1390006D01*
X75644177Y1351010D01*
X75666282Y1309655D01*
X75696029Y1273408D01*
X75722087Y1234410D01*
X75755255Y1201242D01*
X75784999Y1164999D01*
X75821242Y1135255D01*
X75854410Y1102087D01*
X75893408Y1076029D01*
X75929655Y1046282D01*
X75971010Y1024177D01*
X76010006Y998121D01*
X76053337Y980173D01*
X76094692Y958068D01*
X76139564Y944456D01*
X76182895Y926508D01*
X76228895Y917358D01*
X76273768Y903746D01*
X76320433Y899150D01*
X76366433Y890000D01*
X76413336Y890000D01*
X76460000Y885404D01*
X76506665Y890000D01*
X78233567Y890000D01*
X78279567Y899150D01*
X78326232Y903746D01*
X78371105Y917358D01*
X78417105Y926508D01*
X78460436Y944456D01*
X78505308Y958068D01*
X78546663Y980173D01*
X78589994Y998121D01*
X78628990Y1024177D01*
X78670345Y1046282D01*
X78706592Y1076029D01*
X78745590Y1102087D01*
X78778758Y1135255D01*
X78815001Y1164999D01*
X78844745Y1201242D01*
X78877913Y1234410D01*
X78903971Y1273408D01*
X78933718Y1309655D01*
X78955823Y1351010D01*
X78981879Y1390006D01*
X78999827Y1433337D01*
X79021932Y1474692D01*
X79035544Y1519564D01*
X79053492Y1562895D01*
X79062642Y1608895D01*
X79076254Y1653768D01*
X79080850Y1700433D01*
X79090000Y1746433D01*
X79090000Y1793335D01*
X79094596Y1840000D01*
X79090000Y1886665D01*
X79090000Y1933567D01*
X79080850Y1979567D01*
X79076254Y2026232D01*
X79062642Y2071105D01*
X79053492Y2117105D01*
X79035544Y2160436D01*
X79021932Y2205308D01*
X78999827Y2246663D01*
X78981879Y2289994D01*
X78955823Y2328990D01*
X78933718Y2370345D01*
X78903971Y2406592D01*
X78877913Y2445590D01*
X78844745Y2478758D01*
X78815001Y2515001D01*
X78778758Y2544745D01*
X78745590Y2577913D01*
X78706592Y2603971D01*
X78670345Y2633718D01*
X78628990Y2655823D01*
X78589994Y2681879D01*
X78546663Y2699827D01*
X78505308Y2721932D01*
X78460436Y2735544D01*
X78417105Y2753492D01*
X78371105Y2762642D01*
X78326232Y2776254D01*
X78279567Y2780850D01*
X78233567Y2790000D01*
X77410000Y2790000D01*
X77410000Y36671690D01*
X77495303Y36741697D01*
X77553733Y36812894D01*
X77553733Y36772110D01*
X77562421Y36683895D01*
X77588153Y36599069D01*
X77629939Y36520894D01*
X77686173Y36452373D01*
X77754694Y36396139D01*
X77832869Y36354353D01*
X77917695Y36328621D01*
X78005910Y36319933D01*
X80004890Y36319933D01*
X80093105Y36328621D01*
X80177931Y36354353D01*
X80256106Y36396139D01*
X80324627Y36452373D01*
X80380861Y36520894D01*
X80422647Y36599069D01*
X80448379Y36683895D01*
X80457067Y36772110D01*
X80457067Y38771090D01*
X80448379Y38859305D01*
X80422647Y38944131D01*
X80380861Y39022306D01*
X80324627Y39090827D01*
X80256106Y39147061D01*
X80177931Y39188847D01*
X80093105Y39214579D01*
X80004890Y39223267D01*
X78005910Y39223267D01*
X77917695Y39214579D01*
X77832869Y39188847D01*
X77754694Y39147061D01*
X77686173Y39090827D01*
X77629939Y39022306D01*
X77588153Y38944131D01*
X77562421Y38859305D01*
X77553733Y38771090D01*
X77553733Y38730306D01*
X77495303Y38801503D01*
X77274590Y38982638D01*
X77022780Y39117233D01*
X76749550Y39200117D01*
X76536605Y39221090D01*
X76394195Y39221090D01*
X76181250Y39200117D01*
X75908020Y39117233D01*
X75656210Y38982638D01*
X75435497Y38801503D01*
X75254362Y38580790D01*
X75119767Y38328980D01*
X75036883Y38055750D01*
X75008897Y37771600D01*
X75015998Y37699501D01*
X74166498Y36850000D01*
X72743347Y36850000D01*
X72715971Y36901216D01*
X72659737Y36969737D01*
X72591216Y37025971D01*
X72513041Y37067757D01*
X72428215Y37093489D01*
X72340000Y37102177D01*
X72267465Y37102177D01*
X72301881Y37112617D01*
X72393086Y37161367D01*
X72473027Y37226973D01*
X72538633Y37306914D01*
X72587383Y37398119D01*
X72617403Y37497082D01*
X72627540Y37600000D01*
X72625000Y37625788D01*
X72625000Y39475000D01*
X83575001Y39475000D01*
X83575000Y525000D01*
M02*
