%TF.GenerationSoftware,KiCad,Pcbnew,(5.1.2)-1*%
%TF.CreationDate,2019-05-30T14:12:01+02:00*%
%TF.ProjectId,LEOLED_rev1,4c454f4c-4544-45f7-9265-76312e6b6963,1*%
%TF.SameCoordinates,Original*%
%TF.FileFunction,Legend,Bot*%
%TF.FilePolarity,Positive*%
%FSLAX46Y46*%
G04 Gerber Fmt 4.6, Leading zero omitted, Abs format (unit mm)*
G04 Created by KiCad (PCBNEW (5.1.2)-1) date 2019-05-30 14:12:01*
%MOMM*%
%LPD*%
G04 APERTURE LIST*
%ADD10C,1.000000*%
%ADD11C,0.120000*%
%ADD12C,0.150000*%
%ADD13C,3.000000*%
%ADD14O,1.900000X1.200000*%
%ADD15C,1.450000*%
%ADD16R,1.998980X1.998980*%
%ADD17O,1.998980X1.998980*%
%ADD18C,3.500000*%
%ADD19R,0.970000X1.500000*%
%ADD20O,1.700000X1.700000*%
%ADD21R,1.700000X1.700000*%
%ADD22R,1.000000X0.670000*%
G04 APERTURE END LIST*
D10*
X12030000Y38830000D02*
X12030000Y3330000D01*
X62030000Y38830000D02*
X62030000Y3330000D01*
X12030000Y38830000D02*
X62030000Y38830000D01*
X12030000Y3330000D02*
X62030000Y3330000D01*
D11*
X70850000Y25410000D02*
X71150000Y25410000D01*
X70850000Y23990000D02*
X71150000Y23990000D01*
X70750000Y36610000D02*
X71050000Y36610000D01*
X70750000Y35190000D02*
X71050000Y35190000D01*
X4790000Y29280000D02*
X4790000Y29720000D01*
X5810000Y29280000D02*
X5810000Y29720000D01*
D12*
X10240000Y5340000D02*
X10273333Y5240000D01*
X10306666Y5206667D01*
X10373333Y5173334D01*
X10473333Y5173334D01*
X10540000Y5206667D01*
X10573333Y5240000D01*
X10606666Y5306667D01*
X10606666Y5573334D01*
X9906666Y5573334D01*
X9906666Y5340000D01*
X9940000Y5273334D01*
X9973333Y5240000D01*
X10040000Y5206667D01*
X10106666Y5206667D01*
X10173333Y5240000D01*
X10206666Y5273334D01*
X10240000Y5340000D01*
X10240000Y5573334D01*
X10406666Y4906667D02*
X10406666Y4573334D01*
X10606666Y4973334D02*
X9906666Y4740000D01*
X10606666Y4506667D01*
X9906666Y4373334D02*
X9906666Y3973334D01*
X10606666Y4173334D02*
X9906666Y4173334D01*
X10606666Y3373334D02*
X10606666Y3773334D01*
X10606666Y3573334D02*
X9906666Y3573334D01*
X10006666Y3640000D01*
X10073333Y3706667D01*
X10106666Y3773334D01*
X68230000Y24453334D02*
X68463333Y24786667D01*
X68630000Y24453334D02*
X68630000Y25153334D01*
X68363333Y25153334D01*
X68296666Y25120000D01*
X68263333Y25086667D01*
X68230000Y25020000D01*
X68230000Y24920000D01*
X68263333Y24853334D01*
X68296666Y24820000D01*
X68363333Y24786667D01*
X68630000Y24786667D01*
X67963333Y25086667D02*
X67930000Y25120000D01*
X67863333Y25153334D01*
X67696666Y25153334D01*
X67630000Y25120000D01*
X67596666Y25086667D01*
X67563333Y25020000D01*
X67563333Y24953334D01*
X67596666Y24853334D01*
X67996666Y24453334D01*
X67563333Y24453334D01*
X67330000Y25153334D02*
X66863333Y25153334D01*
X67163333Y24453334D01*
X68430000Y35573334D02*
X68663333Y35906667D01*
X68830000Y35573334D02*
X68830000Y36273334D01*
X68563333Y36273334D01*
X68496666Y36240000D01*
X68463333Y36206667D01*
X68430000Y36140000D01*
X68430000Y36040000D01*
X68463333Y35973334D01*
X68496666Y35940000D01*
X68563333Y35906667D01*
X68830000Y35906667D01*
X68163333Y36206667D02*
X68130000Y36240000D01*
X68063333Y36273334D01*
X67896666Y36273334D01*
X67830000Y36240000D01*
X67796666Y36206667D01*
X67763333Y36140000D01*
X67763333Y36073334D01*
X67796666Y35973334D01*
X68196666Y35573334D01*
X67763333Y35573334D01*
X67363333Y35973334D02*
X67430000Y36006667D01*
X67463333Y36040000D01*
X67496666Y36106667D01*
X67496666Y36140000D01*
X67463333Y36206667D01*
X67430000Y36240000D01*
X67363333Y36273334D01*
X67230000Y36273334D01*
X67163333Y36240000D01*
X67130000Y36206667D01*
X67096666Y36140000D01*
X67096666Y36106667D01*
X67130000Y36040000D01*
X67163333Y36006667D01*
X67230000Y35973334D01*
X67363333Y35973334D01*
X67430000Y35940000D01*
X67463333Y35906667D01*
X67496666Y35840000D01*
X67496666Y35706667D01*
X67463333Y35640000D01*
X67430000Y35606667D01*
X67363333Y35573334D01*
X67230000Y35573334D01*
X67163333Y35606667D01*
X67130000Y35640000D01*
X67096666Y35706667D01*
X67096666Y35840000D01*
X67130000Y35906667D01*
X67163333Y35940000D01*
X67230000Y35973334D01*
X5016666Y26900000D02*
X5016666Y26500000D01*
X5716666Y26700000D02*
X5016666Y26700000D01*
X5716666Y26266667D02*
X5016666Y26266667D01*
X5350000Y26266667D02*
X5350000Y25866667D01*
X5716666Y25866667D02*
X5016666Y25866667D01*
X5716666Y25166667D02*
X5716666Y25566667D01*
X5716666Y25366667D02*
X5016666Y25366667D01*
X5116666Y25433334D01*
X5183333Y25500000D01*
X5216666Y25566667D01*
%LPC*%
D13*
X65000000Y22000000D03*
X8000000Y7000000D03*
X9000000Y37000000D03*
D14*
X1400000Y6800000D03*
X1400000Y13800000D03*
D15*
X4100000Y7800000D03*
X4100000Y12800000D03*
D16*
X79005400Y37771600D03*
D17*
X76465400Y37771600D03*
D16*
X67700000Y28900000D03*
D17*
X67700000Y31440000D03*
D18*
X81291400Y23827000D03*
X66076800Y6809000D03*
X64705200Y36730200D03*
X4240000Y2920000D03*
X81291400Y4396000D03*
D19*
X71955000Y24700000D03*
X70045000Y24700000D03*
X71855000Y35900000D03*
X69945000Y35900000D03*
D17*
X2195800Y23395200D03*
X2195800Y25935200D03*
X2195800Y31015200D03*
X2195800Y33555200D03*
D16*
X2195800Y36095200D03*
D17*
X2195800Y28475200D03*
D20*
X66100000Y10780000D03*
X66100000Y13320000D03*
X66100000Y15860000D03*
D21*
X66100000Y18400000D03*
D22*
X5300000Y30375000D03*
X5300000Y28625000D03*
M02*
